<?xml version="1.0" standalone="no"?>
<!DOCTYPE svg PUBLIC "-//W3C//DTD SVG 20010904//EN"
 "http://www.w3.org/TR/2001/REC-SVG-20010904/DTD/svg10.dtd">
<svg version="1.0" xmlns="http://www.w3.org/2000/svg"
 width="2000.000000pt" height="2000.000000pt" viewBox="0 0 2000.000000 2000.000000"
 preserveAspectRatio="xMidYMid meet">
<metadata>
Created by potrace 1.11, written by Peter Selinger 2001-2013
</metadata>
<g transform="translate(0.000000,2000.000000) scale(0.100000,-0.100000)"
fill="#000000" stroke="none">
<path d="M9973 19360 c-60 -24 -185 -248 -272 -488 -222 -613 -372 -1542 -347
-2154 l7 -157 -108 49 c-573 255 -1110 348 -1162 199 -61 -176 384 -640 1012
-1054 l149 -98 -29 -18 c-53 -33 -3755 -2169 -3759 -2169 -2 0 -4 37 -4 83 0
99 -23 369 -45 527 -46 332 -126 634 -210 800 -62 122 -112 170 -174 170 -28
0 -43 -9 -80 -48 -57 -59 -99 -137 -145 -271 -70 -200 -120 -431 -157 -721
-11 -91 -22 -166 -24 -168 -1 -2 -40 21 -86 51 -127 81 -228 137 -425 235
-531 267 -1152 478 -1672 569 -129 22 -187 27 -327 28 -144 0 -175 -3 -203
-18 -26 -14 -32 -23 -32 -52 0 -190 456 -726 1015 -1192 323 -270 774 -576
1017 -691 43 -21 77 -39 77 -42 0 -3 -53 -44 -117 -92 -249 -184 -517 -432
-630 -583 -112 -150 -144 -263 -89 -311 142 -122 712 18 1354 331 l213 104 0
-2185 0 -2184 -168 84 c-647 324 -1269 480 -1398 351 -35 -35 -33 -103 7 -180
91 -180 374 -464 704 -706 62 -46 114 -87 114 -91 1 -4 -35 -26 -79 -48 -273
-137 -690 -421 -1010 -689 -435 -363 -821 -781 -963 -1041 -99 -182 -65 -226
173 -224 373 3 1015 170 1618 420 293 122 653 307 829 425 41 28 76 49 78 47
2 -1 11 -68 20 -148 55 -486 183 -912 309 -1028 90 -83 163 -45 251 128 125
247 231 774 252 1257 3 84 7 153 9 153 3 0 3716 -2143 3757 -2169 l27 -17
-152 -101 c-287 -188 -517 -372 -713 -568 -248 -247 -348 -432 -277 -508 36
-38 97 -51 220 -44 222 11 532 101 910 262 62 26 113 46 115 44 1 -2 0 -56 -3
-119 -12 -270 14 -679 66 -1035 96 -654 301 -1322 481 -1568 93 -127 159 -88
283 168 193 398 353 1032 424 1690 24 223 39 547 32 716 l-6 156 162 -69 c335
-144 662 -236 868 -245 131 -6 185 4 221 43 130 138 -323 637 -964 1060 -78
51 -150 99 -160 106 -16 12 198 138 1868 1103 1038 600 1891 1091 1895 1093 4
1 10 -66 13 -151 21 -482 127 -1011 252 -1257 86 -169 161 -210 245 -134 127
115 247 502 311 1004 11 91 22 167 24 169 2 1 41 -21 87 -51 431 -284 1187
-595 1798 -742 286 -69 427 -90 620 -90 150 -1 180 2 208 17 27 15 32 23 32
55 -2 225 -630 911 -1284 1401 -255 192 -580 400 -748 479 -43 21 -78 39 -78
42 0 3 26 23 58 45 222 154 578 478 690 630 73 98 114 183 114 239 1 50 -10
69 -56 94 -46 25 -249 22 -381 -7 -293 -63 -651 -197 -1000 -375 -77 -39 -143
-72 -147 -74 -5 -2 -8 980 -8 2182 l0 2185 213 -104 c396 -193 742 -315 1017
-360 375 -60 458 53 248 338 -116 157 -407 425 -646 597 -50 36 -91 68 -91 72
-1 4 35 26 79 48 602 303 1440 999 1840 1528 134 177 205 325 180 372 -70 132
-769 23 -1485 -230 -406 -143 -891 -372 -1158 -546 -54 -35 -99 -64 -101 -64
-2 0 -9 51 -16 113 -29 278 -103 626 -170 806 -150 407 -310 399 -459 -21 -99
-281 -191 -856 -191 -1191 0 -38 -4 -67 -9 -65 -4 2 -857 494 -1895 1093
-1667 963 -1885 1092 -1869 1103 10 7 83 55 162 108 546 360 977 793 984 989
2 34 -4 49 -22 69 -37 39 -90 49 -221 43 -219 -11 -498 -90 -878 -249 -79 -33
-144 -59 -145 -57 -2 2 0 54 3 114 16 312 -22 797 -96 1225 -115 664 -357
1349 -508 1441 -35 21 -33 21 -63 9z m2457 -5229 l2355 -1360 3 -2774 2 -2775
-2392 -1382 c-1316 -760 -2397 -1383 -2403 -1382 -5 0 -1087 622 -2403 1382
l-2392 1382 2 2775 3 2774 2395 1383 2395 1384 40 -23 c22 -13 1100 -636 2395
-1384z"/>
<path d="M7863 13689 l-2133 -1232 0 -2466 0 -2466 2136 -1233 2136 -1233
2134 1232 2134 1232 -2 2470 -3 2470 -2128 1228 c-1171 676 -2131 1229 -2135
1229 -4 0 -967 -554 -2139 -1231z m1217 -644 c99 -25 275 -116 358 -186 162
-134 285 -334 350 -569 24 -87 26 -111 26 -295 1 -177 -2 -211 -23 -295 -99
-403 -332 -696 -638 -803 -77 -27 -101 -30 -188 -30 -570 5 -1092 688 -1015
1328 54 451 335 775 746 860 88 18 294 13 384 -10z m2193 14 c357 -56 645
-329 743 -706 35 -133 44 -346 20 -483 -82 -468 -443 -891 -843 -986 -91 -22
-231 -22 -312 0 -281 76 -533 352 -644 702 -119 376 -74 750 128 1059 61 94
227 252 318 304 187 105 384 142 590 110z m-3990 -1573 c408 -121 713 -483
792 -941 20 -115 20 -343 1 -455 -50 -284 -207 -521 -413 -624 -164 -82 -425
-88 -648 -15 -233 77 -482 258 -635 461 -73 97 -162 274 -194 389 -131 463 51
923 443 1118 168 84 249 102 431 97 108 -3 152 -9 223 -30z m5916 5 c502 -146
766 -657 615 -1191 -32 -112 -119 -289 -192 -386 -191 -258 -509 -457 -804
-504 -164 -27 -366 -2 -488 60 -174 87 -321 291 -387 536 -25 92 -27 114 -27
304 -1 167 3 220 18 285 59 254 167 456 330 619 151 151 320 244 527 291 94
21 311 14 408 -14z m-3001 -842 c634 -69 1230 -478 1673 -1146 210 -318 363
-651 444 -968 47 -185 59 -288 52 -462 -11 -303 -105 -524 -302 -711 -252
-240 -659 -389 -1250 -456 -245 -28 -460 -38 -805 -38 -346 0 -549 9 -800 38
-857 98 -1356 377 -1516 848 -113 330 -67 711 143 1196 246 568 650 1070 1102
1371 392 260 832 375 1259 328z"/>
</g>
</svg>
