<?xml version="1.0"?>
<svg xmlns="http://www.w3.org/2000/svg" xmlns:xlink="http://www.w3.org/1999/xlink" version="1.1" viewBox="0 0 252 252" width="100px" height="100px"><g fill="none" fill-rule="nonzero" stroke="none" stroke-width="1" stroke-linecap="butt" stroke-linejoin="miter" stroke-miterlimit="10" stroke-dasharray="" stroke-dashoffset="0" font-family="none" font-weight="none" font-size="none" text-anchor="none" style="mix-blend-mode: normal"><path d="M0,252v-252h252v252z" fill="none"/><path d="M0,126c0,-69.58788 56.41212,-126 126,-126c69.58788,0 126,56.41212 126,126c0,69.58788 -56.41212,126 -126,126c-69.58788,0 -126,-56.41212 -126,-126zM126,231.84c58.45382,0 105.84,-47.38618 105.84,-105.84c0,-58.45382 -47.38618,-105.84 -105.84,-105.84c-58.45382,0 -105.84,47.38618 -105.84,105.84c0,58.45382 47.38618,105.84 105.84,105.84z" fill="#ffffff"/><g fill="#ffffff"><g id="surface1"><path d="M79.02688,83.1598c-0.81873,0.01222 -1.58858,0.34216 -2.16291,0.91649l-18.7697,18.7697c-1.22199,1.22199 -1.22199,3.2016 0,4.42359l65.69394,65.69394c1.22199,1.22199 3.2016,1.22199 4.42359,0l65.69394,-65.69394c1.22199,-1.22199 1.22199,-3.2016 0,-4.42359l-18.7697,-18.7697c-1.22199,-1.22199 -3.2016,-1.22199 -4.42359,0l-44.71245,44.71245l-44.71245,-44.71245c-0.59877,-0.59877 -1.4175,-0.92871 -2.26067,-0.91649z"/></g></g><path d="M126,252c-69.58788,0 -126,-56.41212 -126,-126v0c0,-69.58788 56.41212,-126 126,-126v0c69.58788,0 126,56.41212 126,126v0c0,69.58788 -56.41212,126 -126,126z" fill="none"/><path d="M126,246.96c-66.80436,0 -120.96,-54.15564 -120.96,-120.96v0c0,-66.80436 54.15564,-120.96 120.96,-120.96h0c66.80436,0 120.96,54.15564 120.96,120.96v0c0,66.80436 -54.15564,120.96 -120.96,120.96z" fill="none"/><path d="M126,252c-69.58788,0 -126,-56.41212 -126,-126v0c0,-69.58788 56.41212,-126 126,-126v0c69.58788,0 126,56.41212 126,126v0c0,69.58788 -56.41212,126 -126,126z" fill="none"/><path d="M126,241.92c-64.02085,0 -115.92,-51.89915 -115.92,-115.92v0c0,-64.02085 51.89915,-115.92 115.92,-115.92h0c64.02085,0 115.92,51.89915 115.92,115.92v0c0,64.02085 -51.89915,115.92 -115.92,115.92z" fill="none"/><path d="M126,252c-69.58788,0 -126,-56.41212 -126,-126v0c0,-69.58788 56.41212,-126 126,-126v0c69.58788,0 126,56.41212 126,126v0c0,69.58788 -56.41212,126 -126,126z" fill="none"/><path d="M126,236.88c-61.23733,0 -110.88,-49.64267 -110.88,-110.88v0c0,-61.23733 49.64267,-110.88 110.88,-110.88v0c61.23733,0 110.88,49.64267 110.88,110.88v0c0,61.23733 -49.64267,110.88 -110.88,110.88z" fill="none"/><path d="M126,252c-69.58788,0 -126,-56.41212 -126,-126v0c0,-69.58788 56.41212,-126 126,-126v0c69.58788,0 126,56.41212 126,126v0c0,69.58788 -56.41212,126 -126,126z" fill="none"/><path d="M126,231.84c-58.45382,0 -105.84,-47.38618 -105.84,-105.84v0c0,-58.45382 47.38618,-105.84 105.84,-105.84v0c58.45382,0 105.84,47.38618 105.84,105.84v0c0,58.45382 -47.38618,105.84 -105.84,105.84z" fill="none"/><path d="M126,250.74c-68.892,0 -124.74,-55.848 -124.74,-124.74v0c0,-68.892 55.848,-124.74 124.74,-124.74h0c68.892,0 124.74,55.848 124.74,124.74v0c0,68.892 -55.848,124.74 -124.74,124.74z" fill="none"/><path d="M126,230.58c-57.75794,0 -104.58,-46.82206 -104.58,-104.58v0c0,-57.75794 46.82206,-104.58 104.58,-104.58h0c57.75794,0 104.58,46.82206 104.58,104.58v0c0,57.75794 -46.82206,104.58 -104.58,104.58z" fill="none"/><path d="M126,252c-69.58788,0 -126,-56.41212 -126,-126v0c0,-69.58788 56.41212,-126 126,-126v0c69.58788,0 126,56.41212 126,126v0c0,69.58788 -56.41212,126 -126,126z" fill="none"/><path d="M126,231.84c-58.45382,0 -105.84,-47.38618 -105.84,-105.84v0c0,-58.45382 47.38618,-105.84 105.84,-105.84v0c58.45382,0 105.84,47.38618 105.84,105.84v0c0,58.45382 -47.38618,105.84 -105.84,105.84z" fill="none"/><path d="M126,259.56c-73.76315,0 -133.56,-59.79685 -133.56,-133.56v0c0,-73.76315 59.79685,-133.56 133.56,-133.56v0c73.76315,0 133.56,59.79685 133.56,133.56v0c0,73.76315 -59.79685,133.56 -133.56,133.56z" fill="none"/><path d="M126,239.4c-62.62909,0 -113.4,-50.77091 -113.4,-113.4v0c0,-62.62909 50.77091,-113.4 113.4,-113.4v0c62.62909,0 113.4,50.77091 113.4,113.4v0c0,62.62909 -50.77091,113.4 -113.4,113.4z" fill="none"/><path d="M126,259.56c-73.76315,0 -133.56,-59.79685 -133.56,-133.56v0c0,-73.76315 59.79685,-133.56 133.56,-133.56v0c73.76315,0 133.56,59.79685 133.56,133.56v0c0,73.76315 -59.79685,133.56 -133.56,133.56z" fill="none"/><path d="M126,239.4c-62.62909,0 -113.4,-50.77091 -113.4,-113.4v0c0,-62.62909 50.77091,-113.4 113.4,-113.4v0c62.62909,0 113.4,50.77091 113.4,113.4v0c0,62.62909 -50.77091,113.4 -113.4,113.4z" fill="none"/><path d="M126,259.56c-73.76315,0 -133.56,-59.79685 -133.56,-133.56v0c0,-73.76315 59.79685,-133.56 133.56,-133.56v0c73.76315,0 133.56,59.79685 133.56,133.56v0c0,73.76315 -59.79685,133.56 -133.56,133.56z" fill="none"/><path d="M126,239.4c-62.62909,0 -113.4,-50.77091 -113.4,-113.4v0c0,-62.62909 50.77091,-113.4 113.4,-113.4v0c62.62909,0 113.4,50.77091 113.4,113.4v0c0,62.62909 -50.77091,113.4 -113.4,113.4z" fill="none"/><path d="M126,259.56c-73.76315,0 -133.56,-59.79685 -133.56,-133.56v0c0,-73.76315 59.79685,-133.56 133.56,-133.56v0c73.76315,0 133.56,59.79685 133.56,133.56v0c0,73.76315 -59.79685,133.56 -133.56,133.56z" fill="none"/><path d="M126,239.4c-62.62909,0 -113.4,-50.77091 -113.4,-113.4v0c0,-62.62909 50.77091,-113.4 113.4,-113.4v0c62.62909,0 113.4,50.77091 113.4,113.4v0c0,62.62909 -50.77091,113.4 -113.4,113.4z" fill="none"/><path d="M126,259.56c-73.76315,0 -133.56,-59.79685 -133.56,-133.56v0c0,-73.76315 59.79685,-133.56 133.56,-133.56v0c73.76315,0 133.56,59.79685 133.56,133.56v0c0,73.76315 -59.79685,133.56 -133.56,133.56z" fill="none"/><path d="M126,239.4c-62.62909,0 -113.4,-50.77091 -113.4,-113.4v0c0,-62.62909 50.77091,-113.4 113.4,-113.4v0c62.62909,0 113.4,50.77091 113.4,113.4v0c0,62.62909 -50.77091,113.4 -113.4,113.4z" fill="none"/><path d="M126,259.56c-73.76315,0 -133.56,-59.79685 -133.56,-133.56v0c0,-73.76315 59.79685,-133.56 133.56,-133.56v0c73.76315,0 133.56,59.79685 133.56,133.56v0c0,73.76315 -59.79685,133.56 -133.56,133.56z" fill="none"/><path d="M126,239.4c-62.62909,0 -113.4,-50.77091 -113.4,-113.4v0c0,-62.62909 50.77091,-113.4 113.4,-113.4v0c62.62909,0 113.4,50.77091 113.4,113.4v0c0,62.62909 -50.77091,113.4 -113.4,113.4z" fill="none"/><path d="M126,259.56c-73.76315,0 -133.56,-59.79685 -133.56,-133.56v0c0,-73.76315 59.79685,-133.56 133.56,-133.56v0c73.76315,0 133.56,59.79685 133.56,133.56v0c0,73.76315 -59.79685,133.56 -133.56,133.56z" fill="none"/><path d="M126,239.4c-62.62909,0 -113.4,-50.77091 -113.4,-113.4v0c0,-62.62909 50.77091,-113.4 113.4,-113.4v0c62.62909,0 113.4,50.77091 113.4,113.4v0c0,62.62909 -50.77091,113.4 -113.4,113.4z" fill="none"/><path d="M126,259.56c-73.76315,0 -133.56,-59.79685 -133.56,-133.56v0c0,-73.76315 59.79685,-133.56 133.56,-133.56v0c73.76315,0 133.56,59.79685 133.56,133.56v0c0,73.76315 -59.79685,133.56 -133.56,133.56z" fill="none"/><path d="M126,239.4c-62.62909,0 -113.4,-50.77091 -113.4,-113.4v0c0,-62.62909 50.77091,-113.4 113.4,-113.4v0c62.62909,0 113.4,50.77091 113.4,113.4v0c0,62.62909 -50.77091,113.4 -113.4,113.4z" fill="none"/><path d="M126,259.56c-73.76315,0 -133.56,-59.79685 -133.56,-133.56v0c0,-73.76315 59.79685,-133.56 133.56,-133.56v0c73.76315,0 133.56,59.79685 133.56,133.56v0c0,73.76315 -59.79685,133.56 -133.56,133.56z" fill="none"/><path d="M126,239.4c-62.62909,0 -113.4,-50.77091 -113.4,-113.4v0c0,-62.62909 50.77091,-113.4 113.4,-113.4v0c62.62909,0 113.4,50.77091 113.4,113.4v0c0,62.62909 -50.77091,113.4 -113.4,113.4z" fill="none"/><path d="M126,259.56c-73.76315,0 -133.56,-59.79685 -133.56,-133.56v0c0,-73.76315 59.79685,-133.56 133.56,-133.56v0c73.76315,0 133.56,59.79685 133.56,133.56v0c0,73.76315 -59.79685,133.56 -133.56,133.56z" fill="none"/><path d="M126,239.4c-62.62909,0 -113.4,-50.77091 -113.4,-113.4v0c0,-62.62909 50.77091,-113.4 113.4,-113.4v0c62.62909,0 113.4,50.77091 113.4,113.4v0c0,62.62909 -50.77091,113.4 -113.4,113.4z" fill="none"/><path d="M126,259.56c-73.76315,0 -133.56,-59.79685 -133.56,-133.56v0c0,-73.76315 59.79685,-133.56 133.56,-133.56v0c73.76315,0 133.56,59.79685 133.56,133.56v0c0,73.76315 -59.79685,133.56 -133.56,133.56z" fill="none"/><path d="M126,239.4c-62.62909,0 -113.4,-50.77091 -113.4,-113.4v0c0,-62.62909 50.77091,-113.4 113.4,-113.4v0c62.62909,0 113.4,50.77091 113.4,113.4v0c0,62.62909 -50.77091,113.4 -113.4,113.4z" fill="none"/><path d="M126,259.56c-73.76315,0 -133.56,-59.79685 -133.56,-133.56v0c0,-73.76315 59.79685,-133.56 133.56,-133.56v0c73.76315,0 133.56,59.79685 133.56,133.56v0c0,73.76315 -59.79685,133.56 -133.56,133.56z" fill="none"/><path d="M126,239.4c-62.62909,0 -113.4,-50.77091 -113.4,-113.4v0c0,-62.62909 50.77091,-113.4 113.4,-113.4v0c62.62909,0 113.4,50.77091 113.4,113.4v0c0,62.62909 -50.77091,113.4 -113.4,113.4z" fill="none"/><path d="M126,259.56c-73.76315,0 -133.56,-59.79685 -133.56,-133.56v0c0,-73.76315 59.79685,-133.56 133.56,-133.56v0c73.76315,0 133.56,59.79685 133.56,133.56v0c0,73.76315 -59.79685,133.56 -133.56,133.56z" fill="none"/><path d="M126,239.4c-62.62909,0 -113.4,-50.77091 -113.4,-113.4v0c0,-62.62909 50.77091,-113.4 113.4,-113.4v0c62.62909,0 113.4,50.77091 113.4,113.4v0c0,62.62909 -50.77091,113.4 -113.4,113.4z" fill="none"/><path d="M126,259.56c-73.76315,0 -133.56,-59.79685 -133.56,-133.56v0c0,-73.76315 59.79685,-133.56 133.56,-133.56v0c73.76315,0 133.56,59.79685 133.56,133.56v0c0,73.76315 -59.79685,133.56 -133.56,133.56z" fill="none"/><path d="M126,239.4c-62.62909,0 -113.4,-50.77091 -113.4,-113.4v0c0,-62.62909 50.77091,-113.4 113.4,-113.4v0c62.62909,0 113.4,50.77091 113.4,113.4v0c0,62.62909 -50.77091,113.4 -113.4,113.4z" fill="none"/><path d="M126,259.56c-73.76315,0 -133.56,-59.79685 -133.56,-133.56v0c0,-73.76315 59.79685,-133.56 133.56,-133.56v0c73.76315,0 133.56,59.79685 133.56,133.56v0c0,73.76315 -59.79685,133.56 -133.56,133.56z" fill="none"/><path d="M126,239.4c-62.62909,0 -113.4,-50.77091 -113.4,-113.4v0c0,-62.62909 50.77091,-113.4 113.4,-113.4v0c62.62909,0 113.4,50.77091 113.4,113.4v0c0,62.62909 -50.77091,113.4 -113.4,113.4z" fill="none"/><path d="M126,259.56c-73.76315,0 -133.56,-59.79685 -133.56,-133.56v0c0,-73.76315 59.79685,-133.56 133.56,-133.56v0c73.76315,0 133.56,59.79685 133.56,133.56v0c0,73.76315 -59.79685,133.56 -133.56,133.56z" fill="none"/><path d="M126,239.4c-62.62909,0 -113.4,-50.77091 -113.4,-113.4v0c0,-62.62909 50.77091,-113.4 113.4,-113.4v0c62.62909,0 113.4,50.77091 113.4,113.4v0c0,62.62909 -50.77091,113.4 -113.4,113.4z" fill="none"/><path d="M126,259.56c-73.76315,0 -133.56,-59.79685 -133.56,-133.56v0c0,-73.76315 59.79685,-133.56 133.56,-133.56v0c73.76315,0 133.56,59.79685 133.56,133.56v0c0,73.76315 -59.79685,133.56 -133.56,133.56z" fill="none"/><path d="M126,239.4c-62.62909,0 -113.4,-50.77091 -113.4,-113.4v0c0,-62.62909 50.77091,-113.4 113.4,-113.4v0c62.62909,0 113.4,50.77091 113.4,113.4v0c0,62.62909 -50.77091,113.4 -113.4,113.4z" fill="none"/><path d="M126,259.56c-73.76315,0 -133.56,-59.79685 -133.56,-133.56v0c0,-73.76315 59.79685,-133.56 133.56,-133.56v0c73.76315,0 133.56,59.79685 133.56,133.56v0c0,73.76315 -59.79685,133.56 -133.56,133.56z" fill="none"/><path d="M126,239.4c-62.62909,0 -113.4,-50.77091 -113.4,-113.4v0c0,-62.62909 50.77091,-113.4 113.4,-113.4v0c62.62909,0 113.4,50.77091 113.4,113.4v0c0,62.62909 -50.77091,113.4 -113.4,113.4z" fill="none"/><path d="M126,259.56c-73.76315,0 -133.56,-59.79685 -133.56,-133.56v0c0,-73.76315 59.79685,-133.56 133.56,-133.56v0c73.76315,0 133.56,59.79685 133.56,133.56v0c0,73.76315 -59.79685,133.56 -133.56,133.56z" fill="none"/><path d="M126,239.4c-62.62909,0 -113.4,-50.77091 -113.4,-113.4v0c0,-62.62909 50.77091,-113.4 113.4,-113.4v0c62.62909,0 113.4,50.77091 113.4,113.4v0c0,62.62909 -50.77091,113.4 -113.4,113.4z" fill="none"/><path d="M126,259.56c-73.76315,0 -133.56,-59.79685 -133.56,-133.56v0c0,-73.76315 59.79685,-133.56 133.56,-133.56v0c73.76315,0 133.56,59.79685 133.56,133.56v0c0,73.76315 -59.79685,133.56 -133.56,133.56z" fill="none"/><path d="M126,239.4c-62.62909,0 -113.4,-50.77091 -113.4,-113.4v0c0,-62.62909 50.77091,-113.4 113.4,-113.4v0c62.62909,0 113.4,50.77091 113.4,113.4v0c0,62.62909 -50.77091,113.4 -113.4,113.4z" fill="none"/><path d="M126,259.56c-73.76315,0 -133.56,-59.79685 -133.56,-133.56v0c0,-73.76315 59.79685,-133.56 133.56,-133.56v0c73.76315,0 133.56,59.79685 133.56,133.56v0c0,73.76315 -59.79685,133.56 -133.56,133.56z" fill="none"/><path d="M126,239.4c-62.62909,0 -113.4,-50.77091 -113.4,-113.4v0c0,-62.62909 50.77091,-113.4 113.4,-113.4v0c62.62909,0 113.4,50.77091 113.4,113.4v0c0,62.62909 -50.77091,113.4 -113.4,113.4z" fill="none"/><path d="M126,259.56c-73.76315,0 -133.56,-59.79685 -133.56,-133.56v0c0,-73.76315 59.79685,-133.56 133.56,-133.56v0c73.76315,0 133.56,59.79685 133.56,133.56v0c0,73.76315 -59.79685,133.56 -133.56,133.56z" fill="none"/><path d="M126,239.4c-62.62909,0 -113.4,-50.77091 -113.4,-113.4v0c0,-62.62909 50.77091,-113.4 113.4,-113.4v0c62.62909,0 113.4,50.77091 113.4,113.4v0c0,62.62909 -50.77091,113.4 -113.4,113.4z" fill="none"/><path d="M126,259.56c-73.76315,0 -133.56,-59.79685 -133.56,-133.56v0c0,-73.76315 59.79685,-133.56 133.56,-133.56v0c73.76315,0 133.56,59.79685 133.56,133.56v0c0,73.76315 -59.79685,133.56 -133.56,133.56z" fill="none"/><path d="M126,239.4c-62.62909,0 -113.4,-50.77091 -113.4,-113.4v0c0,-62.62909 50.77091,-113.4 113.4,-113.4v0c62.62909,0 113.4,50.77091 113.4,113.4v0c0,62.62909 -50.77091,113.4 -113.4,113.4z" fill="none"/><path d="M126,259.56c-73.76315,0 -133.56,-59.79685 -133.56,-133.56v0c0,-73.76315 59.79685,-133.56 133.56,-133.56v0c73.76315,0 133.56,59.79685 133.56,133.56v0c0,73.76315 -59.79685,133.56 -133.56,133.56z" fill="none"/><path d="M126,239.4c-62.62909,0 -113.4,-50.77091 -113.4,-113.4v0c0,-62.62909 50.77091,-113.4 113.4,-113.4v0c62.62909,0 113.4,50.77091 113.4,113.4v0c0,62.62909 -50.77091,113.4 -113.4,113.4z" fill="none"/><path d="M126,259.56c-73.76315,0 -133.56,-59.79685 -133.56,-133.56v0c0,-73.76315 59.79685,-133.56 133.56,-133.56v0c73.76315,0 133.56,59.79685 133.56,133.56v0c0,73.76315 -59.79685,133.56 -133.56,133.56z" fill="none"/><path d="M126,239.4c-62.62909,0 -113.4,-50.77091 -113.4,-113.4v0c0,-62.62909 50.77091,-113.4 113.4,-113.4v0c62.62909,0 113.4,50.77091 113.4,113.4v0c0,62.62909 -50.77091,113.4 -113.4,113.4z" fill="none"/><path d="M126,259.56c-73.76315,0 -133.56,-59.79685 -133.56,-133.56v0c0,-73.76315 59.79685,-133.56 133.56,-133.56v0c73.76315,0 133.56,59.79685 133.56,133.56v0c0,73.76315 -59.79685,133.56 -133.56,133.56z" fill="none"/><path d="M126,239.4c-62.62909,0 -113.4,-50.77091 -113.4,-113.4v0c0,-62.62909 50.77091,-113.4 113.4,-113.4v0c62.62909,0 113.4,50.77091 113.4,113.4v0c0,62.62909 -50.77091,113.4 -113.4,113.4z" fill="none"/><path d="M126,259.56c-73.76315,0 -133.56,-59.79685 -133.56,-133.56v0c0,-73.76315 59.79685,-133.56 133.56,-133.56v0c73.76315,0 133.56,59.79685 133.56,133.56v0c0,73.76315 -59.79685,133.56 -133.56,133.56z" fill="none"/><path d="M126,239.4c-62.62909,0 -113.4,-50.77091 -113.4,-113.4v0c0,-62.62909 50.77091,-113.4 113.4,-113.4v0c62.62909,0 113.4,50.77091 113.4,113.4v0c0,62.62909 -50.77091,113.4 -113.4,113.4z" fill="none"/><path d="M126,259.56c-73.76315,0 -133.56,-59.79685 -133.56,-133.56v0c0,-73.76315 59.79685,-133.56 133.56,-133.56v0c73.76315,0 133.56,59.79685 133.56,133.56v0c0,73.76315 -59.79685,133.56 -133.56,133.56z" fill="none"/><path d="M126,239.4c-62.62909,0 -113.4,-50.77091 -113.4,-113.4v0c0,-62.62909 50.77091,-113.4 113.4,-113.4v0c62.62909,0 113.4,50.77091 113.4,113.4v0c0,62.62909 -50.77091,113.4 -113.4,113.4z" fill="none"/><path d="M126,259.56c-73.76315,0 -133.56,-59.79685 -133.56,-133.56v0c0,-73.76315 59.79685,-133.56 133.56,-133.56v0c73.76315,0 133.56,59.79685 133.56,133.56v0c0,73.76315 -59.79685,133.56 -133.56,133.56z" fill="none"/><path d="M126,239.4c-62.62909,0 -113.4,-50.77091 -113.4,-113.4v0c0,-62.62909 50.77091,-113.4 113.4,-113.4v0c62.62909,0 113.4,50.77091 113.4,113.4v0c0,62.62909 -50.77091,113.4 -113.4,113.4z" fill="none"/><path d="M126,259.56c-73.76315,0 -133.56,-59.79685 -133.56,-133.56v0c0,-73.76315 59.79685,-133.56 133.56,-133.56v0c73.76315,0 133.56,59.79685 133.56,133.56v0c0,73.76315 -59.79685,133.56 -133.56,133.56z" fill="none"/><path d="M126,239.4c-62.62909,0 -113.4,-50.77091 -113.4,-113.4v0c0,-62.62909 50.77091,-113.4 113.4,-113.4v0c62.62909,0 113.4,50.77091 113.4,113.4v0c0,62.62909 -50.77091,113.4 -113.4,113.4z" fill="none"/><path d="M126,259.56c-73.76315,0 -133.56,-59.79685 -133.56,-133.56v0c0,-73.76315 59.79685,-133.56 133.56,-133.56v0c73.76315,0 133.56,59.79685 133.56,133.56v0c0,73.76315 -59.79685,133.56 -133.56,133.56z" fill="none"/><path d="M126,239.4c-62.62909,0 -113.4,-50.77091 -113.4,-113.4v0c0,-62.62909 50.77091,-113.4 113.4,-113.4v0c62.62909,0 113.4,50.77091 113.4,113.4v0c0,62.62909 -50.77091,113.4 -113.4,113.4z" fill="none"/><path d="M126,259.56c-73.76315,0 -133.56,-59.79685 -133.56,-133.56v0c0,-73.76315 59.79685,-133.56 133.56,-133.56v0c73.76315,0 133.56,59.79685 133.56,133.56v0c0,73.76315 -59.79685,133.56 -133.56,133.56z" fill="none"/><path d="M126,239.4c-62.62909,0 -113.4,-50.77091 -113.4,-113.4v0c0,-62.62909 50.77091,-113.4 113.4,-113.4v0c62.62909,0 113.4,50.77091 113.4,113.4v0c0,62.62909 -50.77091,113.4 -113.4,113.4z" fill="none"/><path d="M126,259.56c-73.76315,0 -133.56,-59.79685 -133.56,-133.56v0c0,-73.76315 59.79685,-133.56 133.56,-133.56v0c73.76315,0 133.56,59.79685 133.56,133.56v0c0,73.76315 -59.79685,133.56 -133.56,133.56z" fill="none"/><path d="M126,239.4c-62.62909,0 -113.4,-50.77091 -113.4,-113.4v0c0,-62.62909 50.77091,-113.4 113.4,-113.4v0c62.62909,0 113.4,50.77091 113.4,113.4v0c0,62.62909 -50.77091,113.4 -113.4,113.4z" fill="none"/><path d="M126,259.56c-73.76315,0 -133.56,-59.79685 -133.56,-133.56v0c0,-73.76315 59.79685,-133.56 133.56,-133.56v0c73.76315,0 133.56,59.79685 133.56,133.56v0c0,73.76315 -59.79685,133.56 -133.56,133.56z" fill="none"/><path d="M126,239.4c-62.62909,0 -113.4,-50.77091 -113.4,-113.4v0c0,-62.62909 50.77091,-113.4 113.4,-113.4v0c62.62909,0 113.4,50.77091 113.4,113.4v0c0,62.62909 -50.77091,113.4 -113.4,113.4z" fill="none"/><path d="M126,259.56c-73.76315,0 -133.56,-59.79685 -133.56,-133.56v0c0,-73.76315 59.79685,-133.56 133.56,-133.56v0c73.76315,0 133.56,59.79685 133.56,133.56v0c0,73.76315 -59.79685,133.56 -133.56,133.56z" fill="none"/><path d="M126,239.4c-62.62909,0 -113.4,-50.77091 -113.4,-113.4v0c0,-62.62909 50.77091,-113.4 113.4,-113.4v0c62.62909,0 113.4,50.77091 113.4,113.4v0c0,62.62909 -50.77091,113.4 -113.4,113.4z" fill="none"/><path d="M126,259.56c-73.76315,0 -133.56,-59.79685 -133.56,-133.56v0c0,-73.76315 59.79685,-133.56 133.56,-133.56v0c73.76315,0 133.56,59.79685 133.56,133.56v0c0,73.76315 -59.79685,133.56 -133.56,133.56z" fill="none"/><path d="M126,239.4c-62.62909,0 -113.4,-50.77091 -113.4,-113.4v0c0,-62.62909 50.77091,-113.4 113.4,-113.4v0c62.62909,0 113.4,50.77091 113.4,113.4v0c0,62.62909 -50.77091,113.4 -113.4,113.4z" fill="none"/><path d="M126,259.56c-73.76315,0 -133.56,-59.79685 -133.56,-133.56v0c0,-73.76315 59.79685,-133.56 133.56,-133.56v0c73.76315,0 133.56,59.79685 133.56,133.56v0c0,73.76315 -59.79685,133.56 -133.56,133.56z" fill="none"/><path d="M126,239.4c-62.62909,0 -113.4,-50.77091 -113.4,-113.4v0c0,-62.62909 50.77091,-113.4 113.4,-113.4v0c62.62909,0 113.4,50.77091 113.4,113.4v0c0,62.62909 -50.77091,113.4 -113.4,113.4z" fill="none"/><path d="M126,259.56c-73.76315,0 -133.56,-59.79685 -133.56,-133.56v0c0,-73.76315 59.79685,-133.56 133.56,-133.56v0c73.76315,0 133.56,59.79685 133.56,133.56v0c0,73.76315 -59.79685,133.56 -133.56,133.56z" fill="none"/><path d="M126,239.4c-62.62909,0 -113.4,-50.77091 -113.4,-113.4v0c0,-62.62909 50.77091,-113.4 113.4,-113.4v0c62.62909,0 113.4,50.77091 113.4,113.4v0c0,62.62909 -50.77091,113.4 -113.4,113.4z" fill="none"/><path d="M126,259.56c-73.76315,0 -133.56,-59.79685 -133.56,-133.56v0c0,-73.76315 59.79685,-133.56 133.56,-133.56v0c73.76315,0 133.56,59.79685 133.56,133.56v0c0,73.76315 -59.79685,133.56 -133.56,133.56z" fill="none"/><path d="M126,239.4c-62.62909,0 -113.4,-50.77091 -113.4,-113.4v0c0,-62.62909 50.77091,-113.4 113.4,-113.4v0c62.62909,0 113.4,50.77091 113.4,113.4v0c0,62.62909 -50.77091,113.4 -113.4,113.4z" fill="none"/><path d="M126,259.56c-73.76315,0 -133.56,-59.79685 -133.56,-133.56v0c0,-73.76315 59.79685,-133.56 133.56,-133.56v0c73.76315,0 133.56,59.79685 133.56,133.56v0c0,73.76315 -59.79685,133.56 -133.56,133.56z" fill="none"/><path d="M126,239.4c-62.62909,0 -113.4,-50.77091 -113.4,-113.4v0c0,-62.62909 50.77091,-113.4 113.4,-113.4v0c62.62909,0 113.4,50.77091 113.4,113.4v0c0,62.62909 -50.77091,113.4 -113.4,113.4z" fill="none"/><path d="M126,259.56c-73.76315,0 -133.56,-59.79685 -133.56,-133.56v0c0,-73.76315 59.79685,-133.56 133.56,-133.56v0c73.76315,0 133.56,59.79685 133.56,133.56v0c0,73.76315 -59.79685,133.56 -133.56,133.56z" fill="none"/><path d="M126,239.4c-62.62909,0 -113.4,-50.77091 -113.4,-113.4v0c0,-62.62909 50.77091,-113.4 113.4,-113.4v0c62.62909,0 113.4,50.77091 113.4,113.4v0c0,62.62909 -50.77091,113.4 -113.4,113.4z" fill="none"/><path d="M126,259.56c-73.76315,0 -133.56,-59.79685 -133.56,-133.56v0c0,-73.76315 59.79685,-133.56 133.56,-133.56v0c73.76315,0 133.56,59.79685 133.56,133.56v0c0,73.76315 -59.79685,133.56 -133.56,133.56z" fill="none"/><path d="M126,239.4c-62.62909,0 -113.4,-50.77091 -113.4,-113.4v0c0,-62.62909 50.77091,-113.4 113.4,-113.4v0c62.62909,0 113.4,50.77091 113.4,113.4v0c0,62.62909 -50.77091,113.4 -113.4,113.4z" fill="none"/><path d="M126,259.56c-73.76315,0 -133.56,-59.79685 -133.56,-133.56v0c0,-73.76315 59.79685,-133.56 133.56,-133.56v0c73.76315,0 133.56,59.79685 133.56,133.56v0c0,73.76315 -59.79685,133.56 -133.56,133.56z" fill="none"/><path d="M126,239.4c-62.62909,0 -113.4,-50.77091 -113.4,-113.4v0c0,-62.62909 50.77091,-113.4 113.4,-113.4v0c62.62909,0 113.4,50.77091 113.4,113.4v0c0,62.62909 -50.77091,113.4 -113.4,113.4z" fill="none"/><path d="M126,259.56c-73.76315,0 -133.56,-59.79685 -133.56,-133.56v0c0,-73.76315 59.79685,-133.56 133.56,-133.56v0c73.76315,0 133.56,59.79685 133.56,133.56v0c0,73.76315 -59.79685,133.56 -133.56,133.56z" fill="none"/><path d="M126,239.4c-62.62909,0 -113.4,-50.77091 -113.4,-113.4v0c0,-62.62909 50.77091,-113.4 113.4,-113.4v0c62.62909,0 113.4,50.77091 113.4,113.4v0c0,62.62909 -50.77091,113.4 -113.4,113.4z" fill="none"/><path d="M126,259.56c-73.76315,0 -133.56,-59.79685 -133.56,-133.56v0c0,-73.76315 59.79685,-133.56 133.56,-133.56v0c73.76315,0 133.56,59.79685 133.56,133.56v0c0,73.76315 -59.79685,133.56 -133.56,133.56z" fill="none"/><path d="M126,239.4c-62.62909,0 -113.4,-50.77091 -113.4,-113.4v0c0,-62.62909 50.77091,-113.4 113.4,-113.4v0c62.62909,0 113.4,50.77091 113.4,113.4v0c0,62.62909 -50.77091,113.4 -113.4,113.4z" fill="none"/><path d="M126,259.56c-73.76315,0 -133.56,-59.79685 -133.56,-133.56v0c0,-73.76315 59.79685,-133.56 133.56,-133.56v0c73.76315,0 133.56,59.79685 133.56,133.56v0c0,73.76315 -59.79685,133.56 -133.56,133.56z" fill="none"/><path d="M126,239.4c-62.62909,0 -113.4,-50.77091 -113.4,-113.4v0c0,-62.62909 50.77091,-113.4 113.4,-113.4v0c62.62909,0 113.4,50.77091 113.4,113.4v0c0,62.62909 -50.77091,113.4 -113.4,113.4z" fill="none"/><path d="M126,259.56c-73.76315,0 -133.56,-59.79685 -133.56,-133.56v0c0,-73.76315 59.79685,-133.56 133.56,-133.56v0c73.76315,0 133.56,59.79685 133.56,133.56v0c0,73.76315 -59.79685,133.56 -133.56,133.56z" fill="none"/><path d="M126,239.4c-62.62909,0 -113.4,-50.77091 -113.4,-113.4v0c0,-62.62909 50.77091,-113.4 113.4,-113.4v0c62.62909,0 113.4,50.77091 113.4,113.4v0c0,62.62909 -50.77091,113.4 -113.4,113.4z" fill="none"/><path d="M126,259.56c-73.76315,0 -133.56,-59.79685 -133.56,-133.56v0c0,-73.76315 59.79685,-133.56 133.56,-133.56v0c73.76315,0 133.56,59.79685 133.56,133.56v0c0,73.76315 -59.79685,133.56 -133.56,133.56z" fill="none"/><path d="M126,239.4c-62.62909,0 -113.4,-50.77091 -113.4,-113.4v0c0,-62.62909 50.77091,-113.4 113.4,-113.4v0c62.62909,0 113.4,50.77091 113.4,113.4v0c0,62.62909 -50.77091,113.4 -113.4,113.4z" fill="none"/><path d="M126,259.56c-73.76315,0 -133.56,-59.79685 -133.56,-133.56v0c0,-73.76315 59.79685,-133.56 133.56,-133.56v0c73.76315,0 133.56,59.79685 133.56,133.56v0c0,73.76315 -59.79685,133.56 -133.56,133.56z" fill="none"/><path d="M126,239.4c-62.62909,0 -113.4,-50.77091 -113.4,-113.4v0c0,-62.62909 50.77091,-113.4 113.4,-113.4v0c62.62909,0 113.4,50.77091 113.4,113.4v0c0,62.62909 -50.77091,113.4 -113.4,113.4z" fill="none"/><path d="M126,259.56c-73.76315,0 -133.56,-59.79685 -133.56,-133.56v0c0,-73.76315 59.79685,-133.56 133.56,-133.56v0c73.76315,0 133.56,59.79685 133.56,133.56v0c0,73.76315 -59.79685,133.56 -133.56,133.56z" fill="none"/><path d="M126,239.4c-62.62909,0 -113.4,-50.77091 -113.4,-113.4v0c0,-62.62909 50.77091,-113.4 113.4,-113.4v0c62.62909,0 113.4,50.77091 113.4,113.4v0c0,62.62909 -50.77091,113.4 -113.4,113.4z" fill="none"/><path d="M126,259.56c-73.76315,0 -133.56,-59.79685 -133.56,-133.56v0c0,-73.76315 59.79685,-133.56 133.56,-133.56v0c73.76315,0 133.56,59.79685 133.56,133.56v0c0,73.76315 -59.79685,133.56 -133.56,133.56z" fill="none"/><path d="M126,239.4c-62.62909,0 -113.4,-50.77091 -113.4,-113.4v0c0,-62.62909 50.77091,-113.4 113.4,-113.4v0c62.62909,0 113.4,50.77091 113.4,113.4v0c0,62.62909 -50.77091,113.4 -113.4,113.4z" fill="none"/><path d="M126,259.56c-73.76315,0 -133.56,-59.79685 -133.56,-133.56v0c0,-73.76315 59.79685,-133.56 133.56,-133.56v0c73.76315,0 133.56,59.79685 133.56,133.56v0c0,73.76315 -59.79685,133.56 -133.56,133.56z" fill="none"/><path d="M126,239.4c-62.62909,0 -113.4,-50.77091 -113.4,-113.4v0c0,-62.62909 50.77091,-113.4 113.4,-113.4v0c62.62909,0 113.4,50.77091 113.4,113.4v0c0,62.62909 -50.77091,113.4 -113.4,113.4z" fill="none"/><path d="M126,259.56c-73.76315,0 -133.56,-59.79685 -133.56,-133.56v0c0,-73.76315 59.79685,-133.56 133.56,-133.56v0c73.76315,0 133.56,59.79685 133.56,133.56v0c0,73.76315 -59.79685,133.56 -133.56,133.56z" fill="none"/><path d="M126,239.4c-62.62909,0 -113.4,-50.77091 -113.4,-113.4v0c0,-62.62909 50.77091,-113.4 113.4,-113.4v0c62.62909,0 113.4,50.77091 113.4,113.4v0c0,62.62909 -50.77091,113.4 -113.4,113.4z" fill="none"/><path d="M126,259.56c-73.76315,0 -133.56,-59.79685 -133.56,-133.56v0c0,-73.76315 59.79685,-133.56 133.56,-133.56v0c73.76315,0 133.56,59.79685 133.56,133.56v0c0,73.76315 -59.79685,133.56 -133.56,133.56z" fill="none"/><path d="M126,239.4c-62.62909,0 -113.4,-50.77091 -113.4,-113.4v0c0,-62.62909 50.77091,-113.4 113.4,-113.4v0c62.62909,0 113.4,50.77091 113.4,113.4v0c0,62.62909 -50.77091,113.4 -113.4,113.4z" fill="none"/><path d="M126,259.56c-73.76315,0 -133.56,-59.79685 -133.56,-133.56v0c0,-73.76315 59.79685,-133.56 133.56,-133.56v0c73.76315,0 133.56,59.79685 133.56,133.56v0c0,73.76315 -59.79685,133.56 -133.56,133.56z" fill="none"/><path d="M126,239.4c-62.62909,0 -113.4,-50.77091 -113.4,-113.4v0c0,-62.62909 50.77091,-113.4 113.4,-113.4v0c62.62909,0 113.4,50.77091 113.4,113.4v0c0,62.62909 -50.77091,113.4 -113.4,113.4z" fill="none"/><path d="M126,259.56c-73.76315,0 -133.56,-59.79685 -133.56,-133.56v0c0,-73.76315 59.79685,-133.56 133.56,-133.56v0c73.76315,0 133.56,59.79685 133.56,133.56v0c0,73.76315 -59.79685,133.56 -133.56,133.56z" fill="none"/><path d="M126,239.4c-62.62909,0 -113.4,-50.77091 -113.4,-113.4v0c0,-62.62909 50.77091,-113.4 113.4,-113.4v0c62.62909,0 113.4,50.77091 113.4,113.4v0c0,62.62909 -50.77091,113.4 -113.4,113.4z" fill="none"/><path d="M126,259.56c-73.76315,0 -133.56,-59.79685 -133.56,-133.56v0c0,-73.76315 59.79685,-133.56 133.56,-133.56v0c73.76315,0 133.56,59.79685 133.56,133.56v0c0,73.76315 -59.79685,133.56 -133.56,133.56z" fill="none"/><path d="M126,239.4c-62.62909,0 -113.4,-50.77091 -113.4,-113.4v0c0,-62.62909 50.77091,-113.4 113.4,-113.4v0c62.62909,0 113.4,50.77091 113.4,113.4v0c0,62.62909 -50.77091,113.4 -113.4,113.4z" fill="none"/><path d="M126,259.56c-73.76315,0 -133.56,-59.79685 -133.56,-133.56v0c0,-73.76315 59.79685,-133.56 133.56,-133.56v0c73.76315,0 133.56,59.79685 133.56,133.56v0c0,73.76315 -59.79685,133.56 -133.56,133.56z" fill="none"/><path d="M126,239.4c-62.62909,0 -113.4,-50.77091 -113.4,-113.4v0c0,-62.62909 50.77091,-113.4 113.4,-113.4v0c62.62909,0 113.4,50.77091 113.4,113.4v0c0,62.62909 -50.77091,113.4 -113.4,113.4z" fill="none"/><path d="M126,259.56c-73.76315,0 -133.56,-59.79685 -133.56,-133.56v0c0,-73.76315 59.79685,-133.56 133.56,-133.56v0c73.76315,0 133.56,59.79685 133.56,133.56v0c0,73.76315 -59.79685,133.56 -133.56,133.56z" fill="none"/><path d="M126,239.4c-62.62909,0 -113.4,-50.77091 -113.4,-113.4v0c0,-62.62909 50.77091,-113.4 113.4,-113.4v0c62.62909,0 113.4,50.77091 113.4,113.4v0c0,62.62909 -50.77091,113.4 -113.4,113.4z" fill="none"/><path d="M126,259.56c-73.76315,0 -133.56,-59.79685 -133.56,-133.56v0c0,-73.76315 59.79685,-133.56 133.56,-133.56v0c73.76315,0 133.56,59.79685 133.56,133.56v0c0,73.76315 -59.79685,133.56 -133.56,133.56z" fill="none"/><path d="M126,239.4c-62.62909,0 -113.4,-50.77091 -113.4,-113.4v0c0,-62.62909 50.77091,-113.4 113.4,-113.4v0c62.62909,0 113.4,50.77091 113.4,113.4v0c0,62.62909 -50.77091,113.4 -113.4,113.4z" fill="none"/><path d="M126,259.56c-73.76315,0 -133.56,-59.79685 -133.56,-133.56v0c0,-73.76315 59.79685,-133.56 133.56,-133.56v0c73.76315,0 133.56,59.79685 133.56,133.56v0c0,73.76315 -59.79685,133.56 -133.56,133.56z" fill="none"/><path d="M126,239.4c-62.62909,0 -113.4,-50.77091 -113.4,-113.4v0c0,-62.62909 50.77091,-113.4 113.4,-113.4v0c62.62909,0 113.4,50.77091 113.4,113.4v0c0,62.62909 -50.77091,113.4 -113.4,113.4z" fill="none"/><path d="M126,259.56c-73.76315,0 -133.56,-59.79685 -133.56,-133.56v0c0,-73.76315 59.79685,-133.56 133.56,-133.56v0c73.76315,0 133.56,59.79685 133.56,133.56v0c0,73.76315 -59.79685,133.56 -133.56,133.56z" fill="none"/><path d="M126,239.4c-62.62909,0 -113.4,-50.77091 -113.4,-113.4v0c0,-62.62909 50.77091,-113.4 113.4,-113.4v0c62.62909,0 113.4,50.77091 113.4,113.4v0c0,62.62909 -50.77091,113.4 -113.4,113.4z" fill="none"/><path d="M126,259.56c-73.76315,0 -133.56,-59.79685 -133.56,-133.56v0c0,-73.76315 59.79685,-133.56 133.56,-133.56v0c73.76315,0 133.56,59.79685 133.56,133.56v0c0,73.76315 -59.79685,133.56 -133.56,133.56z" fill="none"/><path d="M126,239.4c-62.62909,0 -113.4,-50.77091 -113.4,-113.4v0c0,-62.62909 50.77091,-113.4 113.4,-113.4v0c62.62909,0 113.4,50.77091 113.4,113.4v0c0,62.62909 -50.77091,113.4 -113.4,113.4z" fill="none"/><path d="M126,259.56c-73.76315,0 -133.56,-59.79685 -133.56,-133.56v0c0,-73.76315 59.79685,-133.56 133.56,-133.56v0c73.76315,0 133.56,59.79685 133.56,133.56v0c0,73.76315 -59.79685,133.56 -133.56,133.56z" fill="none"/><path d="M126,239.4c-62.62909,0 -113.4,-50.77091 -113.4,-113.4v0c0,-62.62909 50.77091,-113.4 113.4,-113.4v0c62.62909,0 113.4,50.77091 113.4,113.4v0c0,62.62909 -50.77091,113.4 -113.4,113.4z" fill="none"/><path d="M126,259.56c-73.76315,0 -133.56,-59.79685 -133.56,-133.56v0c0,-73.76315 59.79685,-133.56 133.56,-133.56v0c73.76315,0 133.56,59.79685 133.56,133.56v0c0,73.76315 -59.79685,133.56 -133.56,133.56z" fill="none"/><path d="M126,239.4c-62.62909,0 -113.4,-50.77091 -113.4,-113.4v0c0,-62.62909 50.77091,-113.4 113.4,-113.4v0c62.62909,0 113.4,50.77091 113.4,113.4v0c0,62.62909 -50.77091,113.4 -113.4,113.4z" fill="none"/><path d="M126,259.56c-73.76315,0 -133.56,-59.79685 -133.56,-133.56v0c0,-73.76315 59.79685,-133.56 133.56,-133.56v0c73.76315,0 133.56,59.79685 133.56,133.56v0c0,73.76315 -59.79685,133.56 -133.56,133.56z" fill="none"/><path d="M126,239.4c-62.62909,0 -113.4,-50.77091 -113.4,-113.4v0c0,-62.62909 50.77091,-113.4 113.4,-113.4v0c62.62909,0 113.4,50.77091 113.4,113.4v0c0,62.62909 -50.77091,113.4 -113.4,113.4z" fill="none"/><path d="M126,259.56c-73.76315,0 -133.56,-59.79685 -133.56,-133.56v0c0,-73.76315 59.79685,-133.56 133.56,-133.56v0c73.76315,0 133.56,59.79685 133.56,133.56v0c0,73.76315 -59.79685,133.56 -133.56,133.56z" fill="none"/><path d="M126,244.44c-65.41261,0 -118.44,-53.02739 -118.44,-118.44v0c0,-65.41261 53.02739,-118.44 118.44,-118.44v0c65.41261,0 118.44,53.02739 118.44,118.44v0c0,65.41261 -53.02739,118.44 -118.44,118.44z" fill="none"/><path d="M126,259.56c-73.76315,0 -133.56,-59.79685 -133.56,-133.56v0c0,-73.76315 59.79685,-133.56 133.56,-133.56v0c73.76315,0 133.56,59.79685 133.56,133.56v0c0,73.76315 -59.79685,133.56 -133.56,133.56z" fill="none"/><path d="M126,249.48c-68.19612,0 -123.48,-55.28388 -123.48,-123.48v0c0,-68.19612 55.28388,-123.48 123.48,-123.48h0c68.19612,0 123.48,55.28388 123.48,123.48v0c0,68.19612 -55.28388,123.48 -123.48,123.48z" fill="none"/><path d="M126,259.56c-73.76315,0 -133.56,-59.79685 -133.56,-133.56v0c0,-73.76315 59.79685,-133.56 133.56,-133.56v0c73.76315,0 133.56,59.79685 133.56,133.56v0c0,73.76315 -59.79685,133.56 -133.56,133.56z" fill="none"/><path d="M126,244.44c-65.41261,0 -118.44,-53.02739 -118.44,-118.44v0c0,-65.41261 53.02739,-118.44 118.44,-118.44v0c65.41261,0 118.44,53.02739 118.44,118.44v0c0,65.41261 -53.02739,118.44 -118.44,118.44z" fill="none"/><path d="M126,259.56c-73.76315,0 -133.56,-59.79685 -133.56,-133.56v0c0,-73.76315 59.79685,-133.56 133.56,-133.56v0c73.76315,0 133.56,59.79685 133.56,133.56v0c0,73.76315 -59.79685,133.56 -133.56,133.56z" fill="none"/><path d="M126,244.44c-65.41261,0 -118.44,-53.02739 -118.44,-118.44v0c0,-65.41261 53.02739,-118.44 118.44,-118.44v0c65.41261,0 118.44,53.02739 118.44,118.44v0c0,65.41261 -53.02739,118.44 -118.44,118.44z" fill="none"/><path d="M126,259.56c-73.76315,0 -133.56,-59.79685 -133.56,-133.56v0c0,-73.76315 59.79685,-133.56 133.56,-133.56v0c73.76315,0 133.56,59.79685 133.56,133.56v0c0,73.76315 -59.79685,133.56 -133.56,133.56z" fill="none"/><path d="M126,244.44c-65.41261,0 -118.44,-53.02739 -118.44,-118.44v0c0,-65.41261 53.02739,-118.44 118.44,-118.44v0c65.41261,0 118.44,53.02739 118.44,118.44v0c0,65.41261 -53.02739,118.44 -118.44,118.44z" fill="none"/><path d="M126,259.56c-73.76315,0 -133.56,-59.79685 -133.56,-133.56v0c0,-73.76315 59.79685,-133.56 133.56,-133.56v0c73.76315,0 133.56,59.79685 133.56,133.56v0c0,73.76315 -59.79685,133.56 -133.56,133.56z" fill="none"/><path d="M126,244.44c-65.41261,0 -118.44,-53.02739 -118.44,-118.44v0c0,-65.41261 53.02739,-118.44 118.44,-118.44v0c65.41261,0 118.44,53.02739 118.44,118.44v0c0,65.41261 -53.02739,118.44 -118.44,118.44z" fill="none"/><path d="M126,259.56c-73.76315,0 -133.56,-59.79685 -133.56,-133.56v0c0,-73.76315 59.79685,-133.56 133.56,-133.56v0c73.76315,0 133.56,59.79685 133.56,133.56v0c0,73.76315 -59.79685,133.56 -133.56,133.56z" fill="none"/><path d="M126,244.44c-65.41261,0 -118.44,-53.02739 -118.44,-118.44v0c0,-65.41261 53.02739,-118.44 118.44,-118.44v0c65.41261,0 118.44,53.02739 118.44,118.44v0c0,65.41261 -53.02739,118.44 -118.44,118.44z" fill="none"/><path d="M126,259.56c-73.76315,0 -133.56,-59.79685 -133.56,-133.56v0c0,-73.76315 59.79685,-133.56 133.56,-133.56v0c73.76315,0 133.56,59.79685 133.56,133.56v0c0,73.76315 -59.79685,133.56 -133.56,133.56z" fill="none"/><path d="M126,244.44c-65.41261,0 -118.44,-53.02739 -118.44,-118.44v0c0,-65.41261 53.02739,-118.44 118.44,-118.44v0c65.41261,0 118.44,53.02739 118.44,118.44v0c0,65.41261 -53.02739,118.44 -118.44,118.44z" fill="none"/><path d="M126,259.56c-73.76315,0 -133.56,-59.79685 -133.56,-133.56v0c0,-73.76315 59.79685,-133.56 133.56,-133.56v0c73.76315,0 133.56,59.79685 133.56,133.56v0c0,73.76315 -59.79685,133.56 -133.56,133.56z" fill="none"/><path d="M126,244.44c-65.41261,0 -118.44,-53.02739 -118.44,-118.44v0c0,-65.41261 53.02739,-118.44 118.44,-118.44v0c65.41261,0 118.44,53.02739 118.44,118.44v0c0,65.41261 -53.02739,118.44 -118.44,118.44z" fill="none"/><path d="M126,259.56c-73.76315,0 -133.56,-59.79685 -133.56,-133.56v0c0,-73.76315 59.79685,-133.56 133.56,-133.56v0c73.76315,0 133.56,59.79685 133.56,133.56v0c0,73.76315 -59.79685,133.56 -133.56,133.56z" fill="none"/><path d="M126,244.44c-65.41261,0 -118.44,-53.02739 -118.44,-118.44v0c0,-65.41261 53.02739,-118.44 118.44,-118.44v0c65.41261,0 118.44,53.02739 118.44,118.44v0c0,65.41261 -53.02739,118.44 -118.44,118.44z" fill="none"/><path d="M126,259.56c-73.76315,0 -133.56,-59.79685 -133.56,-133.56v0c0,-73.76315 59.79685,-133.56 133.56,-133.56v0c73.76315,0 133.56,59.79685 133.56,133.56v0c0,73.76315 -59.79685,133.56 -133.56,133.56z" fill="none"/><path d="M126,244.44c-65.41261,0 -118.44,-53.02739 -118.44,-118.44v0c0,-65.41261 53.02739,-118.44 118.44,-118.44v0c65.41261,0 118.44,53.02739 118.44,118.44v0c0,65.41261 -53.02739,118.44 -118.44,118.44z" fill="none"/><path d="M126,259.56c-73.76315,0 -133.56,-59.79685 -133.56,-133.56v0c0,-73.76315 59.79685,-133.56 133.56,-133.56v0c73.76315,0 133.56,59.79685 133.56,133.56v0c0,73.76315 -59.79685,133.56 -133.56,133.56z" fill="none"/><path d="M126,244.44c-65.41261,0 -118.44,-53.02739 -118.44,-118.44v0c0,-65.41261 53.02739,-118.44 118.44,-118.44v0c65.41261,0 118.44,53.02739 118.44,118.44v0c0,65.41261 -53.02739,118.44 -118.44,118.44z" fill="none"/><path d="M126,259.56c-73.76315,0 -133.56,-59.79685 -133.56,-133.56v0c0,-73.76315 59.79685,-133.56 133.56,-133.56v0c73.76315,0 133.56,59.79685 133.56,133.56v0c0,73.76315 -59.79685,133.56 -133.56,133.56z" fill="none"/><path d="M126,244.44c-65.41261,0 -118.44,-53.02739 -118.44,-118.44v0c0,-65.41261 53.02739,-118.44 118.44,-118.44v0c65.41261,0 118.44,53.02739 118.44,118.44v0c0,65.41261 -53.02739,118.44 -118.44,118.44z" fill="none"/><path d="M126,259.56c-73.76315,0 -133.56,-59.79685 -133.56,-133.56v0c0,-73.76315 59.79685,-133.56 133.56,-133.56v0c73.76315,0 133.56,59.79685 133.56,133.56v0c0,73.76315 -59.79685,133.56 -133.56,133.56z" fill="none"/><path d="M126,244.44c-65.41261,0 -118.44,-53.02739 -118.44,-118.44v0c0,-65.41261 53.02739,-118.44 118.44,-118.44v0c65.41261,0 118.44,53.02739 118.44,118.44v0c0,65.41261 -53.02739,118.44 -118.44,118.44z" fill="none"/><path d="M126,259.56c-73.76315,0 -133.56,-59.79685 -133.56,-133.56v0c0,-73.76315 59.79685,-133.56 133.56,-133.56v0c73.76315,0 133.56,59.79685 133.56,133.56v0c0,73.76315 -59.79685,133.56 -133.56,133.56z" fill="none"/><path d="M126,244.44c-65.41261,0 -118.44,-53.02739 -118.44,-118.44v0c0,-65.41261 53.02739,-118.44 118.44,-118.44v0c65.41261,0 118.44,53.02739 118.44,118.44v0c0,65.41261 -53.02739,118.44 -118.44,118.44z" fill="none"/><path d="M126,259.56c-73.76315,0 -133.56,-59.79685 -133.56,-133.56v0c0,-73.76315 59.79685,-133.56 133.56,-133.56v0c73.76315,0 133.56,59.79685 133.56,133.56v0c0,73.76315 -59.79685,133.56 -133.56,133.56z" fill="none"/><path d="M126,244.44c-65.41261,0 -118.44,-53.02739 -118.44,-118.44v0c0,-65.41261 53.02739,-118.44 118.44,-118.44v0c65.41261,0 118.44,53.02739 118.44,118.44v0c0,65.41261 -53.02739,118.44 -118.44,118.44z" fill="none"/><path d="M126,259.56c-73.76315,0 -133.56,-59.79685 -133.56,-133.56v0c0,-73.76315 59.79685,-133.56 133.56,-133.56v0c73.76315,0 133.56,59.79685 133.56,133.56v0c0,73.76315 -59.79685,133.56 -133.56,133.56z" fill="none"/><path d="M126,244.44c-65.41261,0 -118.44,-53.02739 -118.44,-118.44v0c0,-65.41261 53.02739,-118.44 118.44,-118.44v0c65.41261,0 118.44,53.02739 118.44,118.44v0c0,65.41261 -53.02739,118.44 -118.44,118.44z" fill="none"/><path d="M126,259.56c-73.76315,0 -133.56,-59.79685 -133.56,-133.56v0c0,-73.76315 59.79685,-133.56 133.56,-133.56v0c73.76315,0 133.56,59.79685 133.56,133.56v0c0,73.76315 -59.79685,133.56 -133.56,133.56z" fill="none"/><path d="M126,244.44c-65.41261,0 -118.44,-53.02739 -118.44,-118.44v0c0,-65.41261 53.02739,-118.44 118.44,-118.44v0c65.41261,0 118.44,53.02739 118.44,118.44v0c0,65.41261 -53.02739,118.44 -118.44,118.44z" fill="none"/><path d="M126,259.56c-73.76315,0 -133.56,-59.79685 -133.56,-133.56v0c0,-73.76315 59.79685,-133.56 133.56,-133.56v0c73.76315,0 133.56,59.79685 133.56,133.56v0c0,73.76315 -59.79685,133.56 -133.56,133.56z" fill="none"/><path d="M126,244.44c-65.41261,0 -118.44,-53.02739 -118.44,-118.44v0c0,-65.41261 53.02739,-118.44 118.44,-118.44v0c65.41261,0 118.44,53.02739 118.44,118.44v0c0,65.41261 -53.02739,118.44 -118.44,118.44z" fill="none"/><path d="M126,259.56c-73.76315,0 -133.56,-59.79685 -133.56,-133.56v0c0,-73.76315 59.79685,-133.56 133.56,-133.56v0c73.76315,0 133.56,59.79685 133.56,133.56v0c0,73.76315 -59.79685,133.56 -133.56,133.56z" fill="none"/><path d="M126,244.44c-65.41261,0 -118.44,-53.02739 -118.44,-118.44v0c0,-65.41261 53.02739,-118.44 118.44,-118.44v0c65.41261,0 118.44,53.02739 118.44,118.44v0c0,65.41261 -53.02739,118.44 -118.44,118.44z" fill="none"/><path d="M126,259.56c-73.76315,0 -133.56,-59.79685 -133.56,-133.56v0c0,-73.76315 59.79685,-133.56 133.56,-133.56v0c73.76315,0 133.56,59.79685 133.56,133.56v0c0,73.76315 -59.79685,133.56 -133.56,133.56z" fill="none"/><path d="M126,244.44c-65.41261,0 -118.44,-53.02739 -118.44,-118.44v0c0,-65.41261 53.02739,-118.44 118.44,-118.44v0c65.41261,0 118.44,53.02739 118.44,118.44v0c0,65.41261 -53.02739,118.44 -118.44,118.44z" fill="none"/><path d="M126,259.56c-73.76315,0 -133.56,-59.79685 -133.56,-133.56v0c0,-73.76315 59.79685,-133.56 133.56,-133.56v0c73.76315,0 133.56,59.79685 133.56,133.56v0c0,73.76315 -59.79685,133.56 -133.56,133.56z" fill="none"/><path d="M126,244.44c-65.41261,0 -118.44,-53.02739 -118.44,-118.44v0c0,-65.41261 53.02739,-118.44 118.44,-118.44v0c65.41261,0 118.44,53.02739 118.44,118.44v0c0,65.41261 -53.02739,118.44 -118.44,118.44z" fill="none"/><path d="M126,259.56c-73.76315,0 -133.56,-59.79685 -133.56,-133.56v0c0,-73.76315 59.79685,-133.56 133.56,-133.56v0c73.76315,0 133.56,59.79685 133.56,133.56v0c0,73.76315 -59.79685,133.56 -133.56,133.56z" fill="none"/><path d="M126,244.44c-65.41261,0 -118.44,-53.02739 -118.44,-118.44v0c0,-65.41261 53.02739,-118.44 118.44,-118.44v0c65.41261,0 118.44,53.02739 118.44,118.44v0c0,65.41261 -53.02739,118.44 -118.44,118.44z" fill="none"/><path d="M126,259.56c-73.76315,0 -133.56,-59.79685 -133.56,-133.56v0c0,-73.76315 59.79685,-133.56 133.56,-133.56v0c73.76315,0 133.56,59.79685 133.56,133.56v0c0,73.76315 -59.79685,133.56 -133.56,133.56z" fill="none"/><path d="M126,244.44c-65.41261,0 -118.44,-53.02739 -118.44,-118.44v0c0,-65.41261 53.02739,-118.44 118.44,-118.44v0c65.41261,0 118.44,53.02739 118.44,118.44v0c0,65.41261 -53.02739,118.44 -118.44,118.44z" fill="none"/><path d="M126,259.56c-73.76315,0 -133.56,-59.79685 -133.56,-133.56v0c0,-73.76315 59.79685,-133.56 133.56,-133.56v0c73.76315,0 133.56,59.79685 133.56,133.56v0c0,73.76315 -59.79685,133.56 -133.56,133.56z" fill="none"/><path d="M126,244.44c-65.41261,0 -118.44,-53.02739 -118.44,-118.44v0c0,-65.41261 53.02739,-118.44 118.44,-118.44v0c65.41261,0 118.44,53.02739 118.44,118.44v0c0,65.41261 -53.02739,118.44 -118.44,118.44z" fill="none"/><path d="M126,259.56c-73.76315,0 -133.56,-59.79685 -133.56,-133.56v0c0,-73.76315 59.79685,-133.56 133.56,-133.56v0c73.76315,0 133.56,59.79685 133.56,133.56v0c0,73.76315 -59.79685,133.56 -133.56,133.56z" fill="none"/><path d="M126,244.44c-65.41261,0 -118.44,-53.02739 -118.44,-118.44v0c0,-65.41261 53.02739,-118.44 118.44,-118.44v0c65.41261,0 118.44,53.02739 118.44,118.44v0c0,65.41261 -53.02739,118.44 -118.44,118.44z" fill="none"/><path d="M126,259.56c-73.76315,0 -133.56,-59.79685 -133.56,-133.56v0c0,-73.76315 59.79685,-133.56 133.56,-133.56v0c73.76315,0 133.56,59.79685 133.56,133.56v0c0,73.76315 -59.79685,133.56 -133.56,133.56z" fill="none"/><path d="M126,244.44c-65.41261,0 -118.44,-53.02739 -118.44,-118.44v0c0,-65.41261 53.02739,-118.44 118.44,-118.44v0c65.41261,0 118.44,53.02739 118.44,118.44v0c0,65.41261 -53.02739,118.44 -118.44,118.44z" fill="none"/><path d="M126,259.56c-73.76315,0 -133.56,-59.79685 -133.56,-133.56v0c0,-73.76315 59.79685,-133.56 133.56,-133.56v0c73.76315,0 133.56,59.79685 133.56,133.56v0c0,73.76315 -59.79685,133.56 -133.56,133.56z" fill="none"/><path d="M126,244.44c-65.41261,0 -118.44,-53.02739 -118.44,-118.44v0c0,-65.41261 53.02739,-118.44 118.44,-118.44v0c65.41261,0 118.44,53.02739 118.44,118.44v0c0,65.41261 -53.02739,118.44 -118.44,118.44z" fill="none"/><path d="M126,259.56c-73.76315,0 -133.56,-59.79685 -133.56,-133.56v0c0,-73.76315 59.79685,-133.56 133.56,-133.56v0c73.76315,0 133.56,59.79685 133.56,133.56v0c0,73.76315 -59.79685,133.56 -133.56,133.56z" fill="none"/><path d="M126,244.44c-65.41261,0 -118.44,-53.02739 -118.44,-118.44v0c0,-65.41261 53.02739,-118.44 118.44,-118.44v0c65.41261,0 118.44,53.02739 118.44,118.44v0c0,65.41261 -53.02739,118.44 -118.44,118.44z" fill="none"/><path d="M126,259.56c-73.76315,0 -133.56,-59.79685 -133.56,-133.56v0c0,-73.76315 59.79685,-133.56 133.56,-133.56v0c73.76315,0 133.56,59.79685 133.56,133.56v0c0,73.76315 -59.79685,133.56 -133.56,133.56z" fill="none"/><path d="M126,244.44c-65.41261,0 -118.44,-53.02739 -118.44,-118.44v0c0,-65.41261 53.02739,-118.44 118.44,-118.44v0c65.41261,0 118.44,53.02739 118.44,118.44v0c0,65.41261 -53.02739,118.44 -118.44,118.44z" fill="none"/><path d="M126,259.56c-73.76315,0 -133.56,-59.79685 -133.56,-133.56v0c0,-73.76315 59.79685,-133.56 133.56,-133.56v0c73.76315,0 133.56,59.79685 133.56,133.56v0c0,73.76315 -59.79685,133.56 -133.56,133.56z" fill="none"/><path d="M126,244.44c-65.41261,0 -118.44,-53.02739 -118.44,-118.44v0c0,-65.41261 53.02739,-118.44 118.44,-118.44v0c65.41261,0 118.44,53.02739 118.44,118.44v0c0,65.41261 -53.02739,118.44 -118.44,118.44z" fill="none"/><path d="M126,259.56c-73.76315,0 -133.56,-59.79685 -133.56,-133.56v0c0,-73.76315 59.79685,-133.56 133.56,-133.56v0c73.76315,0 133.56,59.79685 133.56,133.56v0c0,73.76315 -59.79685,133.56 -133.56,133.56z" fill="none"/><path d="M126,244.44c-65.41261,0 -118.44,-53.02739 -118.44,-118.44v0c0,-65.41261 53.02739,-118.44 118.44,-118.44v0c65.41261,0 118.44,53.02739 118.44,118.44v0c0,65.41261 -53.02739,118.44 -118.44,118.44z" fill="none"/><path d="M126,259.56c-73.76315,0 -133.56,-59.79685 -133.56,-133.56v0c0,-73.76315 59.79685,-133.56 133.56,-133.56v0c73.76315,0 133.56,59.79685 133.56,133.56v0c0,73.76315 -59.79685,133.56 -133.56,133.56z" fill="none"/><path d="M126,244.44c-65.41261,0 -118.44,-53.02739 -118.44,-118.44v0c0,-65.41261 53.02739,-118.44 118.44,-118.44v0c65.41261,0 118.44,53.02739 118.44,118.44v0c0,65.41261 -53.02739,118.44 -118.44,118.44z" fill="none"/><path d="M126,259.56c-73.76315,0 -133.56,-59.79685 -133.56,-133.56v0c0,-73.76315 59.79685,-133.56 133.56,-133.56v0c73.76315,0 133.56,59.79685 133.56,133.56v0c0,73.76315 -59.79685,133.56 -133.56,133.56z" fill="none"/><path d="M126,244.44c-65.41261,0 -118.44,-53.02739 -118.44,-118.44v0c0,-65.41261 53.02739,-118.44 118.44,-118.44v0c65.41261,0 118.44,53.02739 118.44,118.44v0c0,65.41261 -53.02739,118.44 -118.44,118.44z" fill="none"/><path d="M126,259.56c-73.76315,0 -133.56,-59.79685 -133.56,-133.56v0c0,-73.76315 59.79685,-133.56 133.56,-133.56v0c73.76315,0 133.56,59.79685 133.56,133.56v0c0,73.76315 -59.79685,133.56 -133.56,133.56z" fill="none"/><path d="M126,244.44c-65.41261,0 -118.44,-53.02739 -118.44,-118.44v0c0,-65.41261 53.02739,-118.44 118.44,-118.44v0c65.41261,0 118.44,53.02739 118.44,118.44v0c0,65.41261 -53.02739,118.44 -118.44,118.44z" fill="none"/><path d="M126,259.56c-73.76315,0 -133.56,-59.79685 -133.56,-133.56v0c0,-73.76315 59.79685,-133.56 133.56,-133.56v0c73.76315,0 133.56,59.79685 133.56,133.56v0c0,73.76315 -59.79685,133.56 -133.56,133.56z" fill="none"/><path d="M126,244.44c-65.41261,0 -118.44,-53.02739 -118.44,-118.44v0c0,-65.41261 53.02739,-118.44 118.44,-118.44v0c65.41261,0 118.44,53.02739 118.44,118.44v0c0,65.41261 -53.02739,118.44 -118.44,118.44z" fill="none"/><path d="M126,259.56c-73.76315,0 -133.56,-59.79685 -133.56,-133.56v0c0,-73.76315 59.79685,-133.56 133.56,-133.56v0c73.76315,0 133.56,59.79685 133.56,133.56v0c0,73.76315 -59.79685,133.56 -133.56,133.56z" fill="none"/><path d="M126,244.44c-65.41261,0 -118.44,-53.02739 -118.44,-118.44v0c0,-65.41261 53.02739,-118.44 118.44,-118.44v0c65.41261,0 118.44,53.02739 118.44,118.44v0c0,65.41261 -53.02739,118.44 -118.44,118.44z" fill="none"/><path d="M126,259.56c-73.76315,0 -133.56,-59.79685 -133.56,-133.56v0c0,-73.76315 59.79685,-133.56 133.56,-133.56v0c73.76315,0 133.56,59.79685 133.56,133.56v0c0,73.76315 -59.79685,133.56 -133.56,133.56z" fill="none"/><path d="M126,244.44c-65.41261,0 -118.44,-53.02739 -118.44,-118.44v0c0,-65.41261 53.02739,-118.44 118.44,-118.44v0c65.41261,0 118.44,53.02739 118.44,118.44v0c0,65.41261 -53.02739,118.44 -118.44,118.44z" fill="none"/><path d="M126,259.56c-73.76315,0 -133.56,-59.79685 -133.56,-133.56v0c0,-73.76315 59.79685,-133.56 133.56,-133.56v0c73.76315,0 133.56,59.79685 133.56,133.56v0c0,73.76315 -59.79685,133.56 -133.56,133.56z" fill="none"/><path d="M126,244.44c-65.41261,0 -118.44,-53.02739 -118.44,-118.44v0c0,-65.41261 53.02739,-118.44 118.44,-118.44v0c65.41261,0 118.44,53.02739 118.44,118.44v0c0,65.41261 -53.02739,118.44 -118.44,118.44z" fill="none"/><path d="M126,259.56c-73.76315,0 -133.56,-59.79685 -133.56,-133.56v0c0,-73.76315 59.79685,-133.56 133.56,-133.56v0c73.76315,0 133.56,59.79685 133.56,133.56v0c0,73.76315 -59.79685,133.56 -133.56,133.56z" fill="none"/><path d="M126,244.44c-65.41261,0 -118.44,-53.02739 -118.44,-118.44v0c0,-65.41261 53.02739,-118.44 118.44,-118.44v0c65.41261,0 118.44,53.02739 118.44,118.44v0c0,65.41261 -53.02739,118.44 -118.44,118.44z" fill="none"/><path d="M126,259.56c-73.76315,0 -133.56,-59.79685 -133.56,-133.56v0c0,-73.76315 59.79685,-133.56 133.56,-133.56v0c73.76315,0 133.56,59.79685 133.56,133.56v0c0,73.76315 -59.79685,133.56 -133.56,133.56z" fill="none"/><path d="M126,244.44c-65.41261,0 -118.44,-53.02739 -118.44,-118.44v0c0,-65.41261 53.02739,-118.44 118.44,-118.44v0c65.41261,0 118.44,53.02739 118.44,118.44v0c0,65.41261 -53.02739,118.44 -118.44,118.44z" fill="none"/><path d="M126,259.56c-73.76315,0 -133.56,-59.79685 -133.56,-133.56v0c0,-73.76315 59.79685,-133.56 133.56,-133.56v0c73.76315,0 133.56,59.79685 133.56,133.56v0c0,73.76315 -59.79685,133.56 -133.56,133.56z" fill="none"/><path d="M126,244.44c-65.41261,0 -118.44,-53.02739 -118.44,-118.44v0c0,-65.41261 53.02739,-118.44 118.44,-118.44v0c65.41261,0 118.44,53.02739 118.44,118.44v0c0,65.41261 -53.02739,118.44 -118.44,118.44z" fill="none"/><path d="M126,259.56c-73.76315,0 -133.56,-59.79685 -133.56,-133.56v0c0,-73.76315 59.79685,-133.56 133.56,-133.56v0c73.76315,0 133.56,59.79685 133.56,133.56v0c0,73.76315 -59.79685,133.56 -133.56,133.56z" fill="none"/><path d="M126,244.44c-65.41261,0 -118.44,-53.02739 -118.44,-118.44v0c0,-65.41261 53.02739,-118.44 118.44,-118.44v0c65.41261,0 118.44,53.02739 118.44,118.44v0c0,65.41261 -53.02739,118.44 -118.44,118.44z" fill="none"/><path d="M126,259.56c-73.76315,0 -133.56,-59.79685 -133.56,-133.56v0c0,-73.76315 59.79685,-133.56 133.56,-133.56v0c73.76315,0 133.56,59.79685 133.56,133.56v0c0,73.76315 -59.79685,133.56 -133.56,133.56z" fill="none"/><path d="M126,244.44c-65.41261,0 -118.44,-53.02739 -118.44,-118.44v0c0,-65.41261 53.02739,-118.44 118.44,-118.44v0c65.41261,0 118.44,53.02739 118.44,118.44v0c0,65.41261 -53.02739,118.44 -118.44,118.44z" fill="none"/><path d="M126,259.56c-73.76315,0 -133.56,-59.79685 -133.56,-133.56v0c0,-73.76315 59.79685,-133.56 133.56,-133.56v0c73.76315,0 133.56,59.79685 133.56,133.56v0c0,73.76315 -59.79685,133.56 -133.56,133.56z" fill="none"/><path d="M126,244.44c-65.41261,0 -118.44,-53.02739 -118.44,-118.44v0c0,-65.41261 53.02739,-118.44 118.44,-118.44v0c65.41261,0 118.44,53.02739 118.44,118.44v0c0,65.41261 -53.02739,118.44 -118.44,118.44z" fill="none"/><path d="M126,259.56c-73.76315,0 -133.56,-59.79685 -133.56,-133.56v0c0,-73.76315 59.79685,-133.56 133.56,-133.56v0c73.76315,0 133.56,59.79685 133.56,133.56v0c0,73.76315 -59.79685,133.56 -133.56,133.56z" fill="none"/><path d="M126,244.44c-65.41261,0 -118.44,-53.02739 -118.44,-118.44v0c0,-65.41261 53.02739,-118.44 118.44,-118.44v0c65.41261,0 118.44,53.02739 118.44,118.44v0c0,65.41261 -53.02739,118.44 -118.44,118.44z" fill="none"/><path d="M126,259.56c-73.76315,0 -133.56,-59.79685 -133.56,-133.56v0c0,-73.76315 59.79685,-133.56 133.56,-133.56v0c73.76315,0 133.56,59.79685 133.56,133.56v0c0,73.76315 -59.79685,133.56 -133.56,133.56z" fill="none"/><path d="M126,244.44c-65.41261,0 -118.44,-53.02739 -118.44,-118.44v0c0,-65.41261 53.02739,-118.44 118.44,-118.44v0c65.41261,0 118.44,53.02739 118.44,118.44v0c0,65.41261 -53.02739,118.44 -118.44,118.44z" fill="none"/><path d="M126,259.56c-73.76315,0 -133.56,-59.79685 -133.56,-133.56v0c0,-73.76315 59.79685,-133.56 133.56,-133.56v0c73.76315,0 133.56,59.79685 133.56,133.56v0c0,73.76315 -59.79685,133.56 -133.56,133.56z" fill="none"/><path d="M126,244.44c-65.41261,0 -118.44,-53.02739 -118.44,-118.44v0c0,-65.41261 53.02739,-118.44 118.44,-118.44v0c65.41261,0 118.44,53.02739 118.44,118.44v0c0,65.41261 -53.02739,118.44 -118.44,118.44z" fill="none"/><path d="M126,259.56c-73.76315,0 -133.56,-59.79685 -133.56,-133.56v0c0,-73.76315 59.79685,-133.56 133.56,-133.56v0c73.76315,0 133.56,59.79685 133.56,133.56v0c0,73.76315 -59.79685,133.56 -133.56,133.56z" fill="none"/><path d="M126,244.44c-65.41261,0 -118.44,-53.02739 -118.44,-118.44v0c0,-65.41261 53.02739,-118.44 118.44,-118.44v0c65.41261,0 118.44,53.02739 118.44,118.44v0c0,65.41261 -53.02739,118.44 -118.44,118.44z" fill="none"/><path d="M126,259.56c-73.76315,0 -133.56,-59.79685 -133.56,-133.56v0c0,-73.76315 59.79685,-133.56 133.56,-133.56v0c73.76315,0 133.56,59.79685 133.56,133.56v0c0,73.76315 -59.79685,133.56 -133.56,133.56z" fill="none"/><path d="M126,244.44c-65.41261,0 -118.44,-53.02739 -118.44,-118.44v0c0,-65.41261 53.02739,-118.44 118.44,-118.44v0c65.41261,0 118.44,53.02739 118.44,118.44v0c0,65.41261 -53.02739,118.44 -118.44,118.44z" fill="none"/><path d="M126,259.56c-73.76315,0 -133.56,-59.79685 -133.56,-133.56v0c0,-73.76315 59.79685,-133.56 133.56,-133.56v0c73.76315,0 133.56,59.79685 133.56,133.56v0c0,73.76315 -59.79685,133.56 -133.56,133.56z" fill="none"/><path d="M126,244.44c-65.41261,0 -118.44,-53.02739 -118.44,-118.44v0c0,-65.41261 53.02739,-118.44 118.44,-118.44v0c65.41261,0 118.44,53.02739 118.44,118.44v0c0,65.41261 -53.02739,118.44 -118.44,118.44z" fill="none"/><path d="M126,259.56c-73.76315,0 -133.56,-59.79685 -133.56,-133.56v0c0,-73.76315 59.79685,-133.56 133.56,-133.56v0c73.76315,0 133.56,59.79685 133.56,133.56v0c0,73.76315 -59.79685,133.56 -133.56,133.56z" fill="none"/><path d="M126,244.44c-65.41261,0 -118.44,-53.02739 -118.44,-118.44v0c0,-65.41261 53.02739,-118.44 118.44,-118.44v0c65.41261,0 118.44,53.02739 118.44,118.44v0c0,65.41261 -53.02739,118.44 -118.44,118.44z" fill="none"/><path d="M126,259.56c-73.76315,0 -133.56,-59.79685 -133.56,-133.56v0c0,-73.76315 59.79685,-133.56 133.56,-133.56v0c73.76315,0 133.56,59.79685 133.56,133.56v0c0,73.76315 -59.79685,133.56 -133.56,133.56z" fill="none"/><path d="M126,244.44c-65.41261,0 -118.44,-53.02739 -118.44,-118.44v0c0,-65.41261 53.02739,-118.44 118.44,-118.44v0c65.41261,0 118.44,53.02739 118.44,118.44v0c0,65.41261 -53.02739,118.44 -118.44,118.44z" fill="none"/><path d="M126,259.56c-73.76315,0 -133.56,-59.79685 -133.56,-133.56v0c0,-73.76315 59.79685,-133.56 133.56,-133.56v0c73.76315,0 133.56,59.79685 133.56,133.56v0c0,73.76315 -59.79685,133.56 -133.56,133.56z" fill="none"/><path d="M126,244.44c-65.41261,0 -118.44,-53.02739 -118.44,-118.44v0c0,-65.41261 53.02739,-118.44 118.44,-118.44v0c65.41261,0 118.44,53.02739 118.44,118.44v0c0,65.41261 -53.02739,118.44 -118.44,118.44z" fill="none"/><path d="M126,259.56c-73.76315,0 -133.56,-59.79685 -133.56,-133.56v0c0,-73.76315 59.79685,-133.56 133.56,-133.56v0c73.76315,0 133.56,59.79685 133.56,133.56v0c0,73.76315 -59.79685,133.56 -133.56,133.56z" fill="none"/><path d="M126,244.44c-65.41261,0 -118.44,-53.02739 -118.44,-118.44v0c0,-65.41261 53.02739,-118.44 118.44,-118.44v0c65.41261,0 118.44,53.02739 118.44,118.44v0c0,65.41261 -53.02739,118.44 -118.44,118.44z" fill="none"/><path d="M126,259.56c-73.76315,0 -133.56,-59.79685 -133.56,-133.56v0c0,-73.76315 59.79685,-133.56 133.56,-133.56v0c73.76315,0 133.56,59.79685 133.56,133.56v0c0,73.76315 -59.79685,133.56 -133.56,133.56z" fill="none"/><path d="M126,244.44c-65.41261,0 -118.44,-53.02739 -118.44,-118.44v0c0,-65.41261 53.02739,-118.44 118.44,-118.44v0c65.41261,0 118.44,53.02739 118.44,118.44v0c0,65.41261 -53.02739,118.44 -118.44,118.44z" fill="none"/><path d="M126,259.56c-73.76315,0 -133.56,-59.79685 -133.56,-133.56v0c0,-73.76315 59.79685,-133.56 133.56,-133.56v0c73.76315,0 133.56,59.79685 133.56,133.56v0c0,73.76315 -59.79685,133.56 -133.56,133.56z" fill="none"/><path d="M126,244.44c-65.41261,0 -118.44,-53.02739 -118.44,-118.44v0c0,-65.41261 53.02739,-118.44 118.44,-118.44v0c65.41261,0 118.44,53.02739 118.44,118.44v0c0,65.41261 -53.02739,118.44 -118.44,118.44z" fill="none"/><path d="M126,259.56c-73.76315,0 -133.56,-59.79685 -133.56,-133.56v0c0,-73.76315 59.79685,-133.56 133.56,-133.56v0c73.76315,0 133.56,59.79685 133.56,133.56v0c0,73.76315 -59.79685,133.56 -133.56,133.56z" fill="none"/><path d="M126,244.44c-65.41261,0 -118.44,-53.02739 -118.44,-118.44v0c0,-65.41261 53.02739,-118.44 118.44,-118.44v0c65.41261,0 118.44,53.02739 118.44,118.44v0c0,65.41261 -53.02739,118.44 -118.44,118.44z" fill="none"/><path d="M126,259.56c-73.76315,0 -133.56,-59.79685 -133.56,-133.56v0c0,-73.76315 59.79685,-133.56 133.56,-133.56v0c73.76315,0 133.56,59.79685 133.56,133.56v0c0,73.76315 -59.79685,133.56 -133.56,133.56z" fill="none"/><path d="M126,244.44c-65.41261,0 -118.44,-53.02739 -118.44,-118.44v0c0,-65.41261 53.02739,-118.44 118.44,-118.44v0c65.41261,0 118.44,53.02739 118.44,118.44v0c0,65.41261 -53.02739,118.44 -118.44,118.44z" fill="none"/><path d="M126,259.56c-73.76315,0 -133.56,-59.79685 -133.56,-133.56v0c0,-73.76315 59.79685,-133.56 133.56,-133.56v0c73.76315,0 133.56,59.79685 133.56,133.56v0c0,73.76315 -59.79685,133.56 -133.56,133.56z" fill="none"/><path d="M126,244.44c-65.41261,0 -118.44,-53.02739 -118.44,-118.44v0c0,-65.41261 53.02739,-118.44 118.44,-118.44v0c65.41261,0 118.44,53.02739 118.44,118.44v0c0,65.41261 -53.02739,118.44 -118.44,118.44z" fill="none"/><path d="M126,259.56c-73.76315,0 -133.56,-59.79685 -133.56,-133.56v0c0,-73.76315 59.79685,-133.56 133.56,-133.56v0c73.76315,0 133.56,59.79685 133.56,133.56v0c0,73.76315 -59.79685,133.56 -133.56,133.56z" fill="none"/><path d="M126,244.44c-65.41261,0 -118.44,-53.02739 -118.44,-118.44v0c0,-65.41261 53.02739,-118.44 118.44,-118.44v0c65.41261,0 118.44,53.02739 118.44,118.44v0c0,65.41261 -53.02739,118.44 -118.44,118.44z" fill="none"/><path d="M126,259.56c-73.76315,0 -133.56,-59.79685 -133.56,-133.56v0c0,-73.76315 59.79685,-133.56 133.56,-133.56v0c73.76315,0 133.56,59.79685 133.56,133.56v0c0,73.76315 -59.79685,133.56 -133.56,133.56z" fill="none"/><path d="M126,244.44c-65.41261,0 -118.44,-53.02739 -118.44,-118.44v0c0,-65.41261 53.02739,-118.44 118.44,-118.44v0c65.41261,0 118.44,53.02739 118.44,118.44v0c0,65.41261 -53.02739,118.44 -118.44,118.44z" fill="none"/><path d="M126,259.56c-73.76315,0 -133.56,-59.79685 -133.56,-133.56v0c0,-73.76315 59.79685,-133.56 133.56,-133.56v0c73.76315,0 133.56,59.79685 133.56,133.56v0c0,73.76315 -59.79685,133.56 -133.56,133.56z" fill="none"/><path d="M126,244.44c-65.41261,0 -118.44,-53.02739 -118.44,-118.44v0c0,-65.41261 53.02739,-118.44 118.44,-118.44v0c65.41261,0 118.44,53.02739 118.44,118.44v0c0,65.41261 -53.02739,118.44 -118.44,118.44z" fill="none"/><path d="M126,259.56c-73.76315,0 -133.56,-59.79685 -133.56,-133.56v0c0,-73.76315 59.79685,-133.56 133.56,-133.56v0c73.76315,0 133.56,59.79685 133.56,133.56v0c0,73.76315 -59.79685,133.56 -133.56,133.56z" fill="none"/><path d="M126,244.44c-65.41261,0 -118.44,-53.02739 -118.44,-118.44v0c0,-65.41261 53.02739,-118.44 118.44,-118.44v0c65.41261,0 118.44,53.02739 118.44,118.44v0c0,65.41261 -53.02739,118.44 -118.44,118.44z" fill="none"/><path d="M126,259.56c-73.76315,0 -133.56,-59.79685 -133.56,-133.56v0c0,-73.76315 59.79685,-133.56 133.56,-133.56v0c73.76315,0 133.56,59.79685 133.56,133.56v0c0,73.76315 -59.79685,133.56 -133.56,133.56z" fill="none"/><path d="M126,244.44c-65.41261,0 -118.44,-53.02739 -118.44,-118.44v0c0,-65.41261 53.02739,-118.44 118.44,-118.44v0c65.41261,0 118.44,53.02739 118.44,118.44v0c0,65.41261 -53.02739,118.44 -118.44,118.44z" fill="none"/><path d="M126,259.56c-73.76315,0 -133.56,-59.79685 -133.56,-133.56v0c0,-73.76315 59.79685,-133.56 133.56,-133.56v0c73.76315,0 133.56,59.79685 133.56,133.56v0c0,73.76315 -59.79685,133.56 -133.56,133.56z" fill="none"/><path d="M126,244.44c-65.41261,0 -118.44,-53.02739 -118.44,-118.44v0c0,-65.41261 53.02739,-118.44 118.44,-118.44v0c65.41261,0 118.44,53.02739 118.44,118.44v0c0,65.41261 -53.02739,118.44 -118.44,118.44z" fill="none"/><path d="M126,252c-69.58788,0 -126,-56.41212 -126,-126v0c0,-69.58788 56.41212,-126 126,-126v0c69.58788,0 126,56.41212 126,126v0c0,69.58788 -56.41212,126 -126,126z" fill="none"/><path d="M126,236.88c-61.23733,0 -110.88,-49.64267 -110.88,-110.88v0c0,-61.23733 49.64267,-110.88 110.88,-110.88v0c61.23733,0 110.88,49.64267 110.88,110.88v0c0,61.23733 -49.64267,110.88 -110.88,110.88z" fill="none"/><path d="M126,252c-69.58788,0 -126,-56.41212 -126,-126v0c0,-69.58788 56.41212,-126 126,-126v0c69.58788,0 126,56.41212 126,126v0c0,69.58788 -56.41212,126 -126,126z" fill="none"/><path d="M126,236.88c-61.23733,0 -110.88,-49.64267 -110.88,-110.88v0c0,-61.23733 49.64267,-110.88 110.88,-110.88v0c61.23733,0 110.88,49.64267 110.88,110.88v0c0,61.23733 -49.64267,110.88 -110.88,110.88z" fill="none"/><path d="M126,252c-69.58788,0 -126,-56.41212 -126,-126v0c0,-69.58788 56.41212,-126 126,-126v0c69.58788,0 126,56.41212 126,126v0c0,69.58788 -56.41212,126 -126,126z" fill="none"/><path d="M126,236.88c-61.23733,0 -110.88,-49.64267 -110.88,-110.88v0c0,-61.23733 49.64267,-110.88 110.88,-110.88v0c61.23733,0 110.88,49.64267 110.88,110.88v0c0,61.23733 -49.64267,110.88 -110.88,110.88z" fill="none"/><path d="M126,252c-69.58788,0 -126,-56.41212 -126,-126v0c0,-69.58788 56.41212,-126 126,-126v0c69.58788,0 126,56.41212 126,126v0c0,69.58788 -56.41212,126 -126,126z" fill="none"/><path d="M126,236.88c-61.23733,0 -110.88,-49.64267 -110.88,-110.88v0c0,-61.23733 49.64267,-110.88 110.88,-110.88v0c61.23733,0 110.88,49.64267 110.88,110.88v0c0,61.23733 -49.64267,110.88 -110.88,110.88z" fill="none"/><path d="M126,252c-69.58788,0 -126,-56.41212 -126,-126v0c0,-69.58788 56.41212,-126 126,-126v0c69.58788,0 126,56.41212 126,126v0c0,69.58788 -56.41212,126 -126,126z" fill="none"/><path d="M126,236.88c-61.23733,0 -110.88,-49.64267 -110.88,-110.88v0c0,-61.23733 49.64267,-110.88 110.88,-110.88v0c61.23733,0 110.88,49.64267 110.88,110.88v0c0,61.23733 -49.64267,110.88 -110.88,110.88z" fill="none"/><path d="M126,252c-69.58788,0 -126,-56.41212 -126,-126v0c0,-69.58788 56.41212,-126 126,-126v0c69.58788,0 126,56.41212 126,126v0c0,69.58788 -56.41212,126 -126,126z" fill="none"/><path d="M126,236.88c-61.23733,0 -110.88,-49.64267 -110.88,-110.88v0c0,-61.23733 49.64267,-110.88 110.88,-110.88v0c61.23733,0 110.88,49.64267 110.88,110.88v0c0,61.23733 -49.64267,110.88 -110.88,110.88z" fill="none"/><path d="M126,252c-69.58788,0 -126,-56.41212 -126,-126v0c0,-69.58788 56.41212,-126 126,-126v0c69.58788,0 126,56.41212 126,126v0c0,69.58788 -56.41212,126 -126,126z" fill="none"/><path d="M126,236.88c-61.23733,0 -110.88,-49.64267 -110.88,-110.88v0c0,-61.23733 49.64267,-110.88 110.88,-110.88v0c61.23733,0 110.88,49.64267 110.88,110.88v0c0,61.23733 -49.64267,110.88 -110.88,110.88z" fill="none"/><path d="M126,252c-69.58788,0 -126,-56.41212 -126,-126v0c0,-69.58788 56.41212,-126 126,-126v0c69.58788,0 126,56.41212 126,126v0c0,69.58788 -56.41212,126 -126,126z" fill="none"/><path d="M126,236.88c-61.23733,0 -110.88,-49.64267 -110.88,-110.88v0c0,-61.23733 49.64267,-110.88 110.88,-110.88v0c61.23733,0 110.88,49.64267 110.88,110.88v0c0,61.23733 -49.64267,110.88 -110.88,110.88z" fill="none"/><path d="M126,252c-69.58788,0 -126,-56.41212 -126,-126v0c0,-69.58788 56.41212,-126 126,-126v0c69.58788,0 126,56.41212 126,126v0c0,69.58788 -56.41212,126 -126,126z" fill="none"/><path d="M126,236.88c-61.23733,0 -110.88,-49.64267 -110.88,-110.88v0c0,-61.23733 49.64267,-110.88 110.88,-110.88v0c61.23733,0 110.88,49.64267 110.88,110.88v0c0,61.23733 -49.64267,110.88 -110.88,110.88z" fill="none"/><path d="M126,252c-69.58788,0 -126,-56.41212 -126,-126v0c0,-69.58788 56.41212,-126 126,-126v0c69.58788,0 126,56.41212 126,126v0c0,69.58788 -56.41212,126 -126,126z" fill="none"/><path d="M126,236.88c-61.23733,0 -110.88,-49.64267 -110.88,-110.88v0c0,-61.23733 49.64267,-110.88 110.88,-110.88v0c61.23733,0 110.88,49.64267 110.88,110.88v0c0,61.23733 -49.64267,110.88 -110.88,110.88z" fill="none"/><path d="M126,252c-69.58788,0 -126,-56.41212 -126,-126v0c0,-69.58788 56.41212,-126 126,-126v0c69.58788,0 126,56.41212 126,126v0c0,69.58788 -56.41212,126 -126,126z" fill="none"/><path d="M126,236.88c-61.23733,0 -110.88,-49.64267 -110.88,-110.88v0c0,-61.23733 49.64267,-110.88 110.88,-110.88v0c61.23733,0 110.88,49.64267 110.88,110.88v0c0,61.23733 -49.64267,110.88 -110.88,110.88z" fill="none"/><path d="M126,252c-69.58788,0 -126,-56.41212 -126,-126v0c0,-69.58788 56.41212,-126 126,-126v0c69.58788,0 126,56.41212 126,126v0c0,69.58788 -56.41212,126 -126,126z" fill="none"/><path d="M126,236.88c-61.23733,0 -110.88,-49.64267 -110.88,-110.88v0c0,-61.23733 49.64267,-110.88 110.88,-110.88v0c61.23733,0 110.88,49.64267 110.88,110.88v0c0,61.23733 -49.64267,110.88 -110.88,110.88z" fill="none"/><path d="M126,252c-69.58788,0 -126,-56.41212 -126,-126v0c0,-69.58788 56.41212,-126 126,-126v0c69.58788,0 126,56.41212 126,126v0c0,69.58788 -56.41212,126 -126,126z" fill="none"/><path d="M126,236.88c-61.23733,0 -110.88,-49.64267 -110.88,-110.88v0c0,-61.23733 49.64267,-110.88 110.88,-110.88v0c61.23733,0 110.88,49.64267 110.88,110.88v0c0,61.23733 -49.64267,110.88 -110.88,110.88z" fill="none"/><path d="M126,252c-69.58788,0 -126,-56.41212 -126,-126v0c0,-69.58788 56.41212,-126 126,-126v0c69.58788,0 126,56.41212 126,126v0c0,69.58788 -56.41212,126 -126,126z" fill="none"/><path d="M126,236.88c-61.23733,0 -110.88,-49.64267 -110.88,-110.88v0c0,-61.23733 49.64267,-110.88 110.88,-110.88v0c61.23733,0 110.88,49.64267 110.88,110.88v0c0,61.23733 -49.64267,110.88 -110.88,110.88z" fill="none"/><path d="M126,252c-69.58788,0 -126,-56.41212 -126,-126v0c0,-69.58788 56.41212,-126 126,-126v0c69.58788,0 126,56.41212 126,126v0c0,69.58788 -56.41212,126 -126,126z" fill="none"/><path d="M126,236.88c-61.23733,0 -110.88,-49.64267 -110.88,-110.88v0c0,-61.23733 49.64267,-110.88 110.88,-110.88v0c61.23733,0 110.88,49.64267 110.88,110.88v0c0,61.23733 -49.64267,110.88 -110.88,110.88z" fill="none"/><path d="M126,252c-69.58788,0 -126,-56.41212 -126,-126v0c0,-69.58788 56.41212,-126 126,-126v0c69.58788,0 126,56.41212 126,126v0c0,69.58788 -56.41212,126 -126,126z" fill="none"/><path d="M126,236.88c-61.23733,0 -110.88,-49.64267 -110.88,-110.88v0c0,-61.23733 49.64267,-110.88 110.88,-110.88v0c61.23733,0 110.88,49.64267 110.88,110.88v0c0,61.23733 -49.64267,110.88 -110.88,110.88z" fill="none"/><path d="M126,252c-69.58788,0 -126,-56.41212 -126,-126v0c0,-69.58788 56.41212,-126 126,-126v0c69.58788,0 126,56.41212 126,126v0c0,69.58788 -56.41212,126 -126,126z" fill="none"/><path d="M126,236.88c-61.23733,0 -110.88,-49.64267 -110.88,-110.88v0c0,-61.23733 49.64267,-110.88 110.88,-110.88v0c61.23733,0 110.88,49.64267 110.88,110.88v0c0,61.23733 -49.64267,110.88 -110.88,110.88z" fill="none"/><path d="M126,252c-69.58788,0 -126,-56.41212 -126,-126v0c0,-69.58788 56.41212,-126 126,-126v0c69.58788,0 126,56.41212 126,126v0c0,69.58788 -56.41212,126 -126,126z" fill="none"/><path d="M126,231.84c-58.45382,0 -105.84,-47.38618 -105.84,-105.84v0c0,-58.45382 47.38618,-105.84 105.84,-105.84v0c58.45382,0 105.84,47.38618 105.84,105.84v0c0,58.45382 -47.38618,105.84 -105.84,105.84z" fill="none"/><path d="M126,252c-69.58788,0 -126,-56.41212 -126,-126v0c0,-69.58788 56.41212,-126 126,-126v0c69.58788,0 126,56.41212 126,126v0c0,69.58788 -56.41212,126 -126,126z" fill="none"/><path d="M126,231.84c-58.45382,0 -105.84,-47.38618 -105.84,-105.84v0c0,-58.45382 47.38618,-105.84 105.84,-105.84v0c58.45382,0 105.84,47.38618 105.84,105.84v0c0,58.45382 -47.38618,105.84 -105.84,105.84z" fill="none"/><path d="M126,252c-69.58788,0 -126,-56.41212 -126,-126v0c0,-69.58788 56.41212,-126 126,-126v0c69.58788,0 126,56.41212 126,126v0c0,69.58788 -56.41212,126 -126,126z" fill="none"/><path d="M126,231.84c-58.45382,0 -105.84,-47.38618 -105.84,-105.84v0c0,-58.45382 47.38618,-105.84 105.84,-105.84v0c58.45382,0 105.84,47.38618 105.84,105.84v0c0,58.45382 -47.38618,105.84 -105.84,105.84z" fill="none"/></g></svg>
