<?xml version="1.0" encoding="UTF-8"?>
<svg xmlns="http://www.w3.org/2000/svg" xmlns:xlink="http://www.w3.org/1999/xlink" viewBox="0 0 24 24" version="1.1" fill="#ffffff" width="50px" height="50px">
<g id="surface1" fill="#ffffff">
<path style=" " d="M 10 2 L 10 3 C 10 4.324219 10.414063 5.328125 11 6 C 11.382813 6.441406 11.84375 6.726563 12.4375 6.875 C 12.292969 7.613281 12 8.246094 12 9 C 12 9.371094 12.019531 9.695313 12.0625 10 L 9 10 C 7.90625 10 7 9.253906 7 8.5 L 7 7.875 C 8.839844 7.457031 9 5.882813 9 5 L 9 4 L 7 4 L 7 5 C 7 5.550781 6.574219 6 6 6 C 5.445313 6 5 5.578125 5 5 L 5 4 L 3 4 L 3 5 C 3 6.136719 3.292969 7.523438 5 7.90625 L 5 8 C 5 11.113281 7.75 11.96875 10 11.96875 C 10.777344 11.96875 11.484375 12 12 12 L 12.59375 12 C 12.804688 12.613281 13 13.203125 13 14 C 13 14.898438 12.878906 15.917969 12.625 16.90625 C 12.121094 16.964844 11.597656 17 11 17 C 8.996094 17 6.300781 17.21875 5.65625 15.75 C 6.488281 15.371094 7 14.523438 7 13 L 7 12 L 5 12 L 5 13 C 5 13.664063 4.875 14 4.5 14 C 4.136719 14 4 13.65625 4 13 L 4 12 L 2 12 L 2 13 C 2 14.730469 2.644531 15.585938 3.625 15.875 C 3.921875 17.117188 4.824219 17.910156 6 18.375 C 7.824219 19.09375 10.238281 19.078125 11.78125 19.03125 C 11.542969 19.460938 11.28125 19.847656 10.96875 20.1875 C 9.226563 20.5 8 21.1875 8 22 L 18 22 C 18 21.164063 16.699219 20.453125 14.875 20.15625 C 15.242188 19.652344 15.480469 19.054688 15.65625 18.40625 C 17.816406 17.40625 19.734375 15.066406 19.96875 10.875 C 21.453125 10.453125 22 9.066406 22 8 L 22 7 L 20 7 L 20 8 C 20 8.550781 19.574219 9 19 9 C 18.445313 9 18 8.578125 18 8 L 18 7 L 16 7 L 16 8 C 16 9.175781 16.574219 10.425781 17.96875 10.84375 C 17.871094 12.914063 17.371094 14.628906 15.9375 15.71875 C 15.828125 12.558594 14 10.773438 14 9 C 14 7.761719 14.257813 7.4375 14.40625 6.90625 C 15.070313 6.761719 15.585938 6.457031 16 6 C 16.617188 5.324219 17 4.316406 17 3 L 17 2 L 15 2 L 15 3 C 15 4.453125 14.578125 5 13.4375 5 C 12.3125 5 12 4.34375 12 3 L 12 2 Z " fill="#ffffff"/>
</g>
</svg>
