<?xml version="1.0" encoding="UTF-8"?>
<svg xmlns="http://www.w3.org/2000/svg" xmlns:xlink="http://www.w3.org/1999/xlink" viewBox="0 0 24 24" version="1.1" fill="#ffffff" width="50px" height="50px">
<g id="surface1" fill="#ffffff">
<path style=" " d="M 7 4 L 7 8 L 9 8 L 9 7 C 9 6.398438 9.398438 6 10 6 C 10.601563 6 11 6.398438 11 7 L 11 8 L 13 8 L 13 7 C 13 6.398438 13.398438 6 14 6 C 14.601563 6 15 6.398438 15 7 L 15 8 L 17 8 L 17 4 Z M 5 9 L 5 12 L 9 12 L 9 9 Z M 10 9 L 10 11 L 14 11 L 14 9 Z M 15 9 L 15 12 L 19 12 L 19 9 Z M 10 12 L 10 14 L 14 14 L 14 12 Z M 3 13 L 3 16 L 9 16 L 9 13 Z M 15 13 L 15 16 L 21 16 L 21 13 Z M 10 15 L 10 17 L 14 17 L 14 15 Z M 2 17 L 2 20 L 9 20 L 9 17 Z M 15 17 L 15 20 L 22 20 L 22 17 Z M 10 18 L 10 20 L 14 20 L 14 18 Z " fill="#ffffff"/>
</g>
</svg>
