<?xml version="1.0"?>
<svg xmlns="http://www.w3.org/2000/svg" viewBox="0 0 50 50" fill="#ffffff" width="50px" height="50px">
    <path d="M 18.861328 2.9433594 C 16.782328 2.8133594 15.392047 4.4574688 14.998047 6.2304688 C 14.472047 8.5974687 14.45825 10.8665 13.90625 12.9375 C 10.85325 12.9245 8.03125 12.8705 7.40625 12.9375 C 5.65925 13.1255 3.99225 14.0265 3.90625 15.9375 C 3.82125 17.8485 5.15725 18.8425 6.90625 18.9375 C 7.03225 18.9445 11.13025 18.9625 11.90625 18.9375 C 8.58725 27.2665 4.48025 32.8295 4.40625 32.9375 C 3.37925 34.4375 3.82625 36.523594 5.40625 37.433594 C 6.96625 38.330594 9.01525 37.9965 9.90625 36.9375 C 10.46325 36.2755 15.01625 28.7685 18.90625 17.9375 C 21.86225 17.9045 24.22825 17.6925 26.90625 16.4375 C 28.58725 15.6505 29.34425 13.4625 28.90625 11.4375 C 28.50725 9.5915 26.532875 9.0458281 24.921875 9.7988281 C 23.733875 10.354828 22.26725 11.5875 20.90625 11.9375 C 21.27425 10.5775 21.71725 8.4045 21.90625 6.9375 C 22.12025 5.2825 21.911328 3.1333594 18.861328 2.9433594 z M 32.462891 11.943359 C 31.163328 11.863062 29.881219 12.527609 29.261719 13.724609 C 28.435719 15.320609 29.104859 17.260594 30.755859 18.058594 C 30.755859 18.058594 38.990172 21.752141 40.701172 22.494141 C 43.064172 23.519141 45.029234 22.592891 45.615234 21.462891 C 46.441234 19.866891 45.418578 17.924953 43.767578 17.126953 L 33.744141 12.279297 C 33.331141 12.079547 32.896078 11.970125 32.462891 11.943359 z M 30.40625 18.4375 C 28.57625 18.4385 26.91325 19.9695 26.90625 21.9375 C 26.89725 24.4465 26.90525 27.1515 26.90625 29.9375 C 24.84125 29.9435 20.06725 29.8325 17.40625 32.4375 C 16.03525 33.7795 14.89525 35.8025 14.90625 37.9375 C 14.93325 42.9945 18.48625 46.9375 23.90625 46.9375 C 30.54925 46.9375 33.89025 42.9085 33.90625 37.9375 C 33.90625 37.9375 37.166719 39.506766 40.386719 42.384766 C 42.102719 43.917766 43.69825 43.7175 44.90625 42.4375 C 46.32225 40.9395 45.75125 38.6675 44.40625 37.4375 C 44.17125 37.2225 40.16325 33.0475 33.90625 30.9375 C 33.90525 26.7305 33.92925 22.8295 33.90625 21.9375 C 33.84825 19.6575 32.11225 18.3975 30.40625 18.4375 z M 26.138672 36.902344 C 26.451875 36.906188 26.7265 36.917 26.90625 36.9375 C 27.48925 40.2695 23.90625 39.9375 23.90625 39.9375 C 21.94225 39.9185 21.87725 38.5525 21.90625 37.9375 C 21.92125 37.6255 21.887828 36.9375 23.923828 36.9375 C 23.925328 36.9375 25.199062 36.890813 26.138672 36.902344 z" fill="#ffffff"/>
</svg>
